<?xml version="1.0" standalone="no"?>
<!DOCTYPE svg PUBLIC "-//W3C//DTD SVG 1.1//EN" "http://www.w3.org/Graphics/SVG/1.1/DTD/svg11.dtd" >
<svg xmlns="http://www.w3.org/2000/svg" xmlns:xlink="http://www.w3.org/1999/xlink" version="1.1">
<metadata></metadata>
<defs>
<font id="pp_neuebitbold" horiz-adv-x="3216" >
<font-face units-per-em="4096" ascent="3276" descent="-820" />
<missing-glyph horiz-adv-x="1168" />
<glyph unicode="&#x28;&#x28;PPF&#x29;&#x29;" horiz-adv-x="14916" d="M7894 4096h-292v292h292v-292zM10820 4096h-292v292h292v-292zM876 0h-584v4096h2340v-294h292v-292h292v-1462h-292v-294h-292v-292h-1756v-1462zM4384 0h-584v4096h2340v-294h292v-292h294v-1462h-294v-294h-292v-292h-1756v-1462zM7602 1462h-292v2634h292v-2634z M8480 1754h-292v2342h1754v-294h-1462v-878h1462v-292h-292v-292h-292v292h-878v-878zM11114 1462h-294v2634h294v-2634zM12282 0h-584v4096h2926v-586h-2342v-1170h2048v-586h-2048v-1754zM10236 2924h-294v878h294v-878zM876 3510v-1462h1464v292h292v878h-292v292h-1464z M4384 3510v-1462h1464v292h292v878h-292v292h-1464zM9942 2048h-292v292h292v-292zM10236 1754h-294v294h294v-294zM7894 1170h-292v292h292v-292zM10820 1170h-292v292h292v-292z" />
<glyph horiz-adv-x="0" />
<glyph horiz-adv-x="1365" />
<glyph unicode=" "  horiz-adv-x="1168" />
<glyph unicode="&#x09;" horiz-adv-x="1168" />
<glyph unicode="&#xa0;" horiz-adv-x="1168" />
<glyph unicode="!" horiz-adv-x="1168" d="M876 1024h-584v3072h584v-3072zM876 0h-584v584h584v-584z" />
<glyph unicode="&#x22;" horiz-adv-x="1754" d="M730 2632h-438v1464h438v-1464zM1462 2632h-440v1464h440v-1464z" />
<glyph unicode="#" horiz-adv-x="3508" d="M1168 0h-584v876h292v294h-584v584h584v586h-584v584h584v294h292v878h586v-878h-292v-294h584v294h294v878h584v-878h-292v-294h584v-584h-584v-586h584v-584h-584v-294h-292v-876h-586v876h292v294h-584v-294h-294v-876zM1462 1754h584v586h-584v-586z" />
<glyph unicode="$" horiz-adv-x="3508" d="M1900 -584h-292v584h-732v292h-292v292h-292v586h584v-294h292v-292h440v1170h-440v294h-584v292h-292v1170h292v292h292v294h732v584h292v-584h732v-294h292v-292h292v-586h-584v294h-292v292h-440v-1170h440v-292h584v-294h292v-1170h-292v-292h-292v-292h-732v-584z M1168 2340h440v1170h-440v-292h-292v-586h292v-292zM1900 584h440v292h292v586h-292v292h-440v-1170z" />
<glyph unicode="%" horiz-adv-x="4826" d="M1608 2048h-1024v292h-292v1462h292v294h1024v-294h292v-1462h-292v-292zM1754 0h-438v584h292v586h292v584h294v586h292v584h292v586h294v586h438v-586h-292v-586h-294v-584h-292v-586h-292v-584h-292v-586h-294v-584zM730 2340h732v1462h-732v-1462zM4242 0h-1024v292 h-294v1462h294v294h1024v-294h292v-1462h-292v-292zM3364 292h732v1462h-732v-1462z" />
<glyph unicode="&#x26;" horiz-adv-x="4094" d="M2632 0h-1756v292h-292v292h-292v1170h292v294h292v292h-292v1170h292v292h292v294h1024v-294h294v-292h292v-1170h-292v-292h-294v-294h294v-292h292v-292h292v730h586v-730h-146v-586h292v-584h-732v292h-438v-292zM1462 2340h438v292h292v586h-292v292h-438v-292h-294 v-586h294v-292zM1168 584h1318v292h-294v294h-292v292h-292v292h-440v-292h-292v-586h292v-292z" />
<glyph unicode="'" horiz-adv-x="1022" d="M730 2632h-438v1464h438v-1464z" />
<glyph unicode="(" horiz-adv-x="1754" d="M1462 -1170h-294v294h-292v584h-292v730h-292v2340h292v732h292v586h292v292h294v-440h-294v-438h-146v-878h-146v-2048h146v-876h146v-438h294v-440z" />
<glyph unicode=")" horiz-adv-x="1754" d="M584 -1170h-292v440h292v438h146v876h146v2048h-146v878h-146v438h-292v440h292v-292h292v-586h292v-732h294v-2340h-294v-730h-292v-584h-292v-294z" />
<glyph unicode="*" horiz-adv-x="2192" d="M730 2340h-438v292h292v292h292v294h-584v292h584v586h440v-586h584v-292h-584v-294h292v-292h292v-292h-438v292h-294v292h-146v-292h-292v-292z" />
<glyph unicode="+" horiz-adv-x="3802" d="M2192 0h-584v1170h-1316v584h1316v1170h584v-1170h1318v-584h-1318v-1170z" />
<glyph unicode="," horiz-adv-x="1022" d="M730 -292h-292v292h-292v584h584v-876zM438 -584h-292v292h292v-292z" />
<glyph unicode="-" horiz-adv-x="2924" d="M2632 1462h-2340v586h2340v-586z" />
<glyph unicode="." horiz-adv-x="1168" d="M876 0h-584v584h584v-584z" />
<glyph unicode="/" horiz-adv-x="3070" d="M730 0h-438v584h292v586h292v584h292v586h294v584h292v586h292v586h294v584h438v-584h-292v-586h-294v-586h-292v-584h-292v-586h-292v-584h-294v-586h-292v-584z" />
<glyph unicode="0" d="M2340 0h-1464v292h-292v292h-292v2926h292v292h292v294h1464v-294h292v-292h292v-2926h-292v-292h-292v-292zM1168 584h878v292h294v2342h-294v292h-878v-292h-292v-2342h292v-292z" />
<glyph unicode="1" horiz-adv-x="1900" d="M1608 0h-586v3072h-876v438h876v586h586v-4096z" />
<glyph unicode="2" d="M2924 0h-2632v876h292v294h292v292h292v292h294v294h292v292h292v292h294v586h-294v292h-878v-292h-292v-294h-584v586h292v292h292v294h1464v-294h292v-292h292v-1170h-292v-292h-292v-294h-294v-292h-292v-292h-292v-294h-294v-292h1756v-584z" />
<glyph unicode="3" d="M2340 0h-1464v292h-292v292h-292v586h584v-294h292v-292h878v292h294v732h-294v292h-878v440h878v292h294v586h-294v292h-878v-292h-292v-294h-584v586h292v292h292v294h1464v-294h292v-292h292v-1170h-292v-440h292v-1316h-292v-292h-292v-292z" />
<glyph unicode="4" horiz-adv-x="3070" d="M2632 0h-586v876h-1754v878h292v586h292v584h292v586h294v586h1170v-2780h292v-440h-292v-876zM876 1316h1170v2194h-292v-586h-292v-584h-294v-586h-292v-438z" />
<glyph unicode="5" d="M2340 0h-1464v292h-292v292h-292v586h584v-294h292v-292h878v292h294v878h-294v294h-878v-294h-876v1464h292v878h2048v-586h-1464v-292h-292v-878h292v292h1172v-292h292v-292h292v-1464h-292v-292h-292v-292z" />
<glyph unicode="6" d="M2340 0h-1464v292h-292v292h-292v2926h292v292h292v294h1464v-294h292v-292h292v-586h-584v294h-294v292h-878v-292h-292v-878h292v292h1172v-292h292v-292h292v-1464h-292v-292h-292v-292zM1168 584h878v292h294v878h-294v294h-878v-294h-292v-878h292v-292z" />
<glyph unicode="7" horiz-adv-x="2924" d="M1316 0h-586v1170h292v878h294v584h292v292h292v294h294v292h-2048v586h2632v-1172h-292v-292h-292v-292h-294v-586h-292v-584h-292v-1170z" />
<glyph unicode="8" d="M2340 0h-1464v292h-292v292h-292v1316h292v440h-292v1170h292v292h292v294h1464v-294h292v-292h292v-1170h-292v-440h292v-1316h-292v-292h-292v-292zM1168 2340h878v292h294v586h-294v292h-878v-292h-292v-586h292v-292zM1168 584h878v292h294v732h-294v292h-878v-292 h-292v-732h292v-292z" />
<glyph unicode="9" d="M2340 0h-1464v292h-292v292h-292v586h584v-294h292v-292h878v292h294v878h-294v-292h-1170v292h-292v294h-292v1462h292v292h292v294h1464v-294h292v-292h292v-2926h-292v-292h-292v-292zM1168 2048h878v292h294v878h-294v292h-878v-292h-292v-878h292v-292z" />
<glyph unicode=":" horiz-adv-x="1168" d="M876 2340h-584v584h584v-584zM876 0h-584v584h584v-584z" />
<glyph unicode=";" horiz-adv-x="1168" d="M876 2340h-584v584h584v-584zM876 -292h-292v292h-292v584h584v-876zM584 -584h-292v292h292v-292z" />
<glyph unicode="&#x3c;" horiz-adv-x="3508" d="M3216 0h-584v292h-586v292h-584v292h-586v294h-584v584h584v294h586v292h584v292h586v292h584v-438h-584v-292h-586v-294h-584v-292h-586v-292h586v-292h584v-294h586v-292h584v-438z" />
<glyph unicode="=" horiz-adv-x="3508" d="M3216 1900h-2924v440h2924v-440zM3216 876h-2924v440h2924v-440z" />
<glyph unicode="&#x3e;" horiz-adv-x="3508" d="M876 0h-584v438h584v292h586v294h584v292h586v292h-586v292h-584v294h-586v292h-584v438h584v-292h586v-292h584v-292h586v-294h584v-584h-584v-294h-586v-292h-584v-292h-586v-292z" />
<glyph unicode="?" d="M1754 1024h-586v730h294v294h292v292h292v292h294v586h-294v292h-878v-292h-292v-294h-584v586h292v292h292v294h1464v-294h292v-292h292v-1170h-292v-292h-292v-294h-294v-292h-292v-438zM1754 0h-586v584h586v-584z" />
<glyph unicode="@" horiz-adv-x="4680" d="M2924 3802h-1170v294h1170v-294zM1754 3510h-586v292h586v-292zM3510 3510h-586v292h586v-292zM1168 3218h-292v292h292v-292zM3802 3218h-292v292h292v-292zM876 2632h-292v586h292v-586zM2632 2924h-878v294h878v-294zM3216 1170h-584v292h292v1170h-292v292h292v294 h292v-2048zM4094 2632h-292v586h292v-586zM1754 2632h-292v292h292v-292zM584 1462h-292v1170h292v-1170zM1462 1462h-294v1170h294v-1170zM4388 1462h-294v1170h294v-1170zM876 876h-292v586h292v-586zM1754 1170h-292v292h292v-292zM4094 1170h-292v292h292v-292z M2632 876h-878v294h878v-294zM3802 876h-586v294h586v-294zM1168 584h-292v292h292v-292zM1754 292h-586v292h586v-292zM3510 292h-586v292h586v-292zM2924 0h-1170v292h1170v-292z" />
<glyph unicode="A" horiz-adv-x="3802" d="M876 0h-584v876h292v878h292v878h292v878h294v586h878v-586h292v-878h292v-878h292v-878h294v-876h-586v876h-2048v-876zM1168 1462h1464v292h-292v878h-294v586h-292v-586h-292v-878h-294v-292z" />
<glyph unicode="B" horiz-adv-x="3802" d="M2924 0h-2632v4096h2340v-294h292v-292h292v-1170h-292v-292h292v-294h294v-1170h-294v-292h-292v-292zM876 2340h1464v292h292v586h-292v292h-1464v-1170zM876 584h1756v292h292v586h-292v292h-1756v-1170z" />
<glyph unicode="C" horiz-adv-x="4094" d="M2924 0h-1756v292h-292v292h-292v292h-292v2342h292v292h292v292h292v294h1756v-294h292v-292h294v-292h292v-586h-586v292h-292v294h-292v292h-1170v-292h-294v-294h-292v-1754h292v-294h294v-292h1170v292h292v294h292v292h586v-586h-292v-292h-294v-292h-292v-292z " />
<glyph unicode="D" horiz-adv-x="3802" d="M2632 0h-2340v4096h2340v-294h292v-292h292v-292h294v-2342h-294v-292h-292v-292h-292v-292zM876 584h1464v292h292v294h292v1754h-292v294h-292v292h-1464v-2926z" />
<glyph unicode="E" horiz-adv-x="3508" d="M3216 0h-2924v4096h2924v-586h-2340v-1024h2048v-586h-2048v-1316h2340v-584z" />
<glyph unicode="F" horiz-adv-x="3508" d="M876 0h-584v4096h2924v-586h-2340v-1170h2048v-586h-2048v-1754z" />
<glyph unicode="G" horiz-adv-x="4094" d="M2632 0h-1464v292h-292v292h-292v292h-292v2342h292v292h292v292h292v294h1756v-294h292v-292h294v-292h292v-586h-586v292h-292v294h-292v292h-1170v-292h-294v-294h-292v-1754h292v-294h294v-292h1170v292h292v294h292v292h-876v586h1462v-2048h-586v584h-292v-292 h-292v-292z" />
<glyph unicode="H" horiz-adv-x="3802" d="M876 0h-584v4096h584v-1610h2048v1610h586v-4096h-586v1900h-2048v-1900z" />
<glyph unicode="I" horiz-adv-x="1168" d="M876 0h-584v4096h584v-4096z" />
<glyph unicode="J" horiz-adv-x="2778" d="M1900 0h-1170v292h-292v292h-292v878h584v-586h292v-292h586v292h292v3220h586v-3512h-292v-292h-294v-292z" />
<glyph unicode="K" horiz-adv-x="3362" d="M876 0h-584v4096h584v-1464h292v292h294v294h292v292h292v292h294v294h730v-294h-292v-292h-292v-292h-294v-294h-292v-292h-292v-292h-292v-586h292v-292h292v-292h292v-294h294v-292h292v-292h292v-292h-730v292h-294v292h-292v292h-292v294h-294v292h-292v-1462z" />
<glyph unicode="L" horiz-adv-x="3070" d="M2924 0h-2632v4096h584v-3512h2048v-584z" />
<glyph unicode="M" horiz-adv-x="4386" d="M876 0h-584v4096h876v-586h294v-878h292v-878h292v-878h294v878h292v878h292v878h292v586h878v-4096h-584v2632h-294v-878h-292v-878h-292v-876h-878v876h-292v878h-294v878h-292v-2632z" />
<glyph unicode="N" horiz-adv-x="3508" d="M876 0h-584v4096h876v-586h294v-586h292v-584h292v-586h294v-584h292v2926h584v-4096h-876v584h-294v586h-292v584h-292v586h-294v584h-292v-2924z" />
<glyph unicode="O" horiz-adv-x="4094" d="M2924 0h-1756v292h-292v292h-292v292h-292v2342h292v292h292v292h292v294h1756v-294h292v-292h294v-292h292v-2342h-292v-292h-294v-292h-292v-292zM1462 584h1170v292h292v294h292v1754h-292v294h-292v292h-1170v-292h-294v-294h-292v-1754h292v-294h294v-292z" />
<glyph unicode="P" horiz-adv-x="3508" d="M876 0h-584v4096h2340v-294h292v-292h292v-1462h-292v-294h-292v-292h-1756v-1462zM876 2048h1464v292h292v878h-292v292h-1464v-1462z" />
<glyph unicode="Q" horiz-adv-x="4094" d="M2778 0h-1610v292h-292v292h-292v292h-292v2342h292v292h292v292h292v294h1756v-294h292v-292h294v-292h292v-2194h-292v-440h292v-584h-586v292h-438v-292zM1462 584h1170v292h-292v586h584v-292h292v1754h-292v294h-292v292h-1170v-292h-294v-294h-292v-1754h292v-294 h294v-292z" />
<glyph unicode="R" horiz-adv-x="3802" d="M876 0h-584v4096h2632v-294h292v-292h294v-1316h-294v-294h-292v-292h292v-292h294v-1316h-586v1024h-292v292h-292v292h-1464v-1608zM876 2194h1756v292h292v732h-292v292h-1756v-1316z" />
<glyph unicode="S" horiz-adv-x="3802" d="M2924 0h-2048v292h-292v292h-292v586h584v-294h292v-292h1464v292h292v586h-292v292h-1464v294h-584v292h-292v1170h292v292h292v294h2048v-294h292v-292h294v-586h-586v294h-292v292h-1464v-292h-292v-586h292v-292h1464v-292h584v-294h294v-1170h-294v-292h-292v-292z " />
<glyph unicode="T" d="M1900 0h-584v3510h-1170v586h2924v-586h-1170v-3510z" />
<glyph unicode="U" horiz-adv-x="3508" d="M2632 0h-1756v292h-292v292h-292v3512h584v-3220h292v-292h1172v292h292v3220h584v-3512h-292v-292h-292v-292z" />
<glyph unicode="V" horiz-adv-x="3510" d="M2194 0h-878v584h-294v878h-292v878h-292v878h-292v878h584v-878h292v-878h294v-878h292v-586h292v586h294v878h292v878h292v878h586v-878h-294v-878h-292v-878h-292v-878h-292v-584z" />
<glyph unicode="W" horiz-adv-x="5264" d="M1900 0h-878v584h-292v1170h-292v1170h-292v1172h584v-1172h292v-1170h294v-878h292v878h292v1170h294v1172h876v-1172h294v-1170h292v-878h292v878h294v1170h292v1172h584v-1172h-292v-1170h-292v-1170h-292v-584h-878v584h-294v1170h-292v1170h-292v-1170h-292v-1170 h-294v-584z" />
<glyph unicode="X" horiz-adv-x="3802" d="M876 0h-584v876h292v294h292v292h292v292h294v586h-294v292h-292v292h-292v294h-292v878h584v-586h292v-292h294v-294h292v-292h292v292h294v294h292v292h292v586h586v-878h-294v-294h-292v-292h-292v-292h-292v-586h292v-292h292v-292h292v-294h294v-876h-586v584h-292 v292h-292v294h-294v292h-292v-292h-292v-294h-294v-292h-292v-584z" />
<glyph unicode="Y" d="M1900 0h-584v1754h-294v586h-292v584h-292v586h-292v586h584v-586h292v-586h294v-584h584v584h294v586h292v586h584v-586h-292v-586h-292v-584h-292v-586h-294v-1754z" />
<glyph unicode="Z" horiz-adv-x="3508" d="M3216 0h-2924v1170h292v292h292v292h292v294h294v292h292v292h292v292h294v294h292v292h-2340v586h2924v-1172h-292v-292h-292v-292h-292v-292h-294v-294h-292v-292h-292v-292h-294v-294h-292v-292h2340v-584z" />
<glyph unicode="[" horiz-adv-x="1608" d="M1316 -1170h-1024v5266h1024v-440h-586v-4386h586v-440z" />
<glyph unicode="\" horiz-adv-x="3070" d="M2778 0h-438v584h-294v586h-292v584h-292v586h-294v584h-292v586h-292v586h-292v584h438v-584h292v-586h294v-586h292v-584h292v-586h292v-584h294v-586h292v-584z" />
<glyph unicode="]" horiz-adv-x="1608" d="M1316 -1170h-1024v440h584v4386h-584v440h1024v-5266z" />
<glyph unicode="^" horiz-adv-x="2632" d="M876 3218h-584v292h292v292h292v294h878v-294h292v-292h294v-292h-586v292h-292v292h-294v-292h-292v-292z" />
<glyph unicode="_" horiz-adv-x="3508" d="M3216 -584h-2924v292h2924v-292z" />
<glyph unicode="`" horiz-adv-x="1754" d="M1462 3218h-586v292h-292v292h-292v294h584v-294h292v-292h294v-292z" />
<glyph unicode="a" d="M2046 0h-1170v292h-292v292h-292v586h292v292h584v292h1172v294h-294v292h-878v-292h-876v292h292v292h292v292h1464v-292h292v-292h292v-2340h-584v292h-294v-292zM1022 584h1024v292h294v586h-294v-292h-1024v-586z" />
<glyph unicode="b" d="M876 0h-584v4096h584v-1464h292v292h1172v-292h292v-292h292v-1756h-292v-292h-292v-292h-1172v292h-292v-292zM1168 584h878v292h294v1172h-294v292h-878v-292h-292v-1172h292v-292z" />
<glyph unicode="c" d="M2340 0h-1464v292h-292v292h-292v1756h292v292h292v292h1464v-292h292v-292h292v-586h-584v294h-294v292h-878v-292h-292v-1172h292v-292h878v292h294v294h584v-586h-292v-292h-292v-292z" />
<glyph unicode="d" d="M2046 0h-1170v292h-292v292h-292v1756h292v292h292v292h1170v-292h294v1464h584v-4096h-584v292h-294v-292zM1168 584h878v292h294v1172h-294v292h-878v-292h-292v-1172h292v-292z" />
<glyph unicode="e" d="M2340 0h-1464v292h-292v292h-292v1756h292v292h292v292h1464v-292h292v-292h292v-1024h-2048v-440h292v-292h878v292h878v-292h-292v-292h-292v-292zM876 1754h1464v294h-294v292h-878v-292h-292v-294z" />
<glyph unicode="f" horiz-adv-x="1900" d="M1170 0h-586v2486h-438v438h438v878h292v294h878v-586h-584v-586h584v-438h-584v-2486z" />
<glyph unicode="g" d="M2340 -1170h-1464v294h-292v292h-292v292h876v-292h878v292h294v584h-294v-292h-1170v292h-292v292h-292v1756h292v292h292v292h1170v-292h294v292h584v-3508h-292v-292h-292v-294zM1168 584h878v292h294v1172h-294v292h-878v-292h-292v-1172h292v-292z" />
<glyph unicode="h" horiz-adv-x="3070" d="M876 0h-584v4096h584v-1464h292v292h1024v-292h294v-292h292v-2340h-586v2048h-292v292h-732v-292h-292v-2048z" />
<glyph unicode="i" horiz-adv-x="1168" d="M876 3364h-584v584h584v-584zM876 0h-584v2924h584v-2924z" />
<glyph unicode="j" horiz-adv-x="1168" d="M876 3364h-584v584h584v-584zM584 -1170h-876v586h584v3508h584v-3800h-292v-294z" />
<glyph unicode="k" horiz-adv-x="2924" d="M876 0h-584v4096h584v-2342h292v294h294v292h292v292h292v292h732v-292h-292v-292h-294v-292h-292v-294h-292v-584h292v-294h292v-292h294v-292h292v-292h-732v292h-292v292h-292v292h-294v294h-292v-1170z" />
<glyph unicode="l" horiz-adv-x="1168" d="M876 0h-584v4096h584v-4096z" />
<glyph unicode="m" horiz-adv-x="4680" d="M876 0h-584v2924h584v-292h292v292h878v-292h586v292h1170v-292h292v-292h294v-2340h-586v2048h-292v292h-586v-292h-292v-2048h-586v2048h-292v292h-586v-292h-292v-2048z" />
<glyph unicode="n" horiz-adv-x="3070" d="M876 0h-584v2924h584v-292h292v292h1024v-292h294v-292h292v-2340h-586v2048h-292v292h-732v-292h-292v-2048z" />
<glyph unicode="o" d="M2340 0h-1464v292h-292v292h-292v1756h292v292h292v292h1464v-292h292v-292h292v-1756h-292v-292h-292v-292zM1168 584h878v292h294v1172h-294v292h-878v-292h-292v-1172h292v-292z" />
<glyph unicode="p" d="M876 -1170h-584v4094h584v-292h292v292h1172v-292h292v-292h292v-1756h-292v-292h-292v-292h-1172v292h-292v-1462zM1168 584h878v292h294v1172h-294v292h-878v-292h-292v-1172h292v-292z" />
<glyph unicode="q" d="M2924 -1170h-584v1462h-294v-292h-1170v292h-292v292h-292v1756h292v292h292v292h1170v-292h294v292h584v-4094zM1168 584h878v292h294v1172h-294v292h-878v-292h-292v-1172h292v-292z" />
<glyph unicode="r" horiz-adv-x="2046" d="M876 0h-584v2924h584v-292h292v292h732v-584h-732v-292h-292v-2048z" />
<glyph unicode="s" d="M2340 0h-1464v292h-292v292h-292v292h876v-292h1024v586h-1024v292h-584v292h-292v586h292v292h292v292h1464v-292h292v-292h292v-292h-878v292h-1024v-586h1024v-292h586v-292h292v-586h-292v-292h-292v-292z" />
<glyph unicode="t" horiz-adv-x="1900" d="M1754 0h-878v292h-292v2194h-438v438h438v878h586v-878h584v-438h-584v-1902h584v-584z" />
<glyph unicode="u" horiz-adv-x="3070" d="M1900 0h-1024v292h-292v292h-292v2340h584v-2048h292v-292h732v292h292v2048h586v-2924h-586v292h-292v-292z" />
<glyph unicode="v" d="M1900 0h-584v584h-294v586h-292v584h-292v586h-292v584h584v-584h292v-586h294v-584h584v584h294v586h292v584h584v-584h-292v-586h-292v-584h-292v-586h-294v-584z" />
<glyph unicode="w" horiz-adv-x="4094" d="M1608 0h-878v876h-292v1172h-292v876h584v-876h292v-1172h440v1172h292v876h586v-876h292v-1172h438v1172h294v876h584v-876h-292v-1172h-292v-876h-878v876h-292v1172h-294v-1172h-292v-876z" />
<glyph unicode="x" d="M730 0h-584v438h292v292h292v294h292v292h294v292h-294v292h-292v294h-292v292h-292v438h584v-292h292v-292h294v-292h584v292h294v292h292v292h584v-438h-292v-292h-292v-294h-292v-292h-294v-292h294v-292h292v-294h292v-292h292v-438h-584v292h-292v292h-294v292h-584 v-292h-294v-292h-292v-292z" />
<glyph unicode="y" d="M1022 -1170h-876v586h876v584h294v584h-294v586h-292v584h-292v586h-292v584h584v-584h292v-586h294v-584h584v584h294v586h292v584h584v-584h-292v-586h-292v-584h-292v-586h-294v-584h-292v-584h-292v-292h-294v-294z" />
<glyph unicode="z" horiz-adv-x="2778" d="M2486 0h-2194v876h292v294h292v292h292v292h294v294h292v292h-1462v584h2194v-876h-294v-294h-292v-292h-292v-292h-292v-294h-294v-292h1464v-584z" />
<glyph unicode="{" horiz-adv-x="2046" d="M1168 1754h-438v2048h292v294h732v-440h-586v-1902zM730 1170h-438v584h438v-584zM1754 -1170h-732v294h-292v2046h438v-1900h586v-440z" />
<glyph unicode="|" horiz-adv-x="1022" d="M730 -292h-438v5264h438v-5264z" />
<glyph unicode="}" horiz-adv-x="2046" d="M1316 1754h-440v1902h-584v440h730v-294h294v-2048zM1754 1170h-438v584h438v-584zM1022 -1170h-730v440h584v1900h440v-2046h-294v-294z" />
<glyph unicode="~" horiz-adv-x="3508" d="M2924 1316h-878v292h-584v292h-586v-292h-584v440h292v292h878v-292h584v-294h586v294h584v-440h-292v-292z" />
<glyph unicode="&#xa1;" horiz-adv-x="1168" d="M876 2340h-584v584h584v-584zM876 -1170h-584v3070h584v-3070z" />
<glyph unicode="&#xa2;" d="M1754 -584h-292v584h-586v292h-292v292h-292v1756h292v292h292v292h586v586h292v-586h586v-292h292v-292h292v-586h-584v294h-294v292h-292v-1756h292v292h294v294h584v-586h-292v-292h-292v-292h-586v-584zM1168 584h294v1756h-294v-292h-292v-1172h292v-292z" />
<glyph unicode="&#xa3;" horiz-adv-x="3362" d="M3216 0h-2924v876h584v294h292v584h-876v294h876v292h-292v292h-292v878h292v292h292v294h1172v-294h292v-292h292v-586h-584v294h-294v292h-584v-292h-294v-294h294v-292h292v-584h878v-294h-878v-584h-292v-294h-294v-292h2048v-584z" />
<glyph unicode="&#xa4;" horiz-adv-x="2632" d="M584 2632h-292v292h292v-292zM2340 2632h-294v292h294v-292zM2046 1170h-1462v1462h1462v-1462zM1022 1608h586v586h-586v-586zM584 876h-292v294h292v-294zM2340 876h-294v294h294v-294z" />
<glyph unicode="&#xa5;" horiz-adv-x="3508" d="M2046 0h-584v876h-878v294h878v584h-878v294h584v292h-292v584h-292v586h-292v586h584v-586h292v-586h294v-584h584v584h294v586h292v586h584v-586h-292v-586h-292v-584h-292v-292h584v-294h-878v-584h878v-294h-878v-876z" />
<glyph unicode="&#xa6;" horiz-adv-x="1022" d="M730 2924h-438v2048h438v-2048zM730 -292h-438v2046h438v-2046z" />
<glyph unicode="&#xa7;" horiz-adv-x="3802" d="M2632 -876h-1464v292h-292v292h-292v584h584v-292h294v-292h878v292h292v584h-292v292h-1172v294h-584v292h-292v878h292v1170h292v292h292v294h1464v-294h292v-292h292v-586h-584v294h-292v292h-878v-292h-294v-440h294v-292h1170v-292h584v-294h294v-1024h-294v-1168 h-292v-292h-292v-292zM2340 1170h584v438h-584v292h-878v294h-586v-440h586v-292h878v-292z" />
<glyph unicode="&#xa8;" horiz-adv-x="2046" d="M876 3364h-584v584h584v-584zM1754 3364h-586v584h586v-584z" />
<glyph unicode="&#xa9;" horiz-adv-x="4680" d="M2924 3802h-1170v294h1170v-294zM1754 3510h-586v292h586v-292zM3510 3510h-586v292h586v-292zM1168 3218h-292v292h292v-292zM3802 3218h-292v292h292v-292zM876 2632h-292v586h292v-586zM2924 2924h-1170v294h1170v-294zM4094 2632h-292v586h292v-586zM1754 2632h-292 v292h292v-292zM3216 2632h-292v292h292v-292zM584 1462h-292v1170h292v-1170zM1462 1462h-294v1170h294v-1170zM3510 2340h-294v292h294v-292zM4388 1462h-294v1170h294v-1170zM3510 1462h-294v292h294v-292zM876 876h-292v586h292v-586zM1754 1170h-292v292h292v-292z M3216 1170h-292v292h292v-292zM4094 876h-292v586h292v-586zM2924 876h-1170v294h1170v-294zM1168 584h-292v292h292v-292zM3802 584h-292v292h292v-292zM1754 292h-586v292h586v-292zM3510 292h-586v292h586v-292zM2924 0h-1170v292h1170v-292z" />
<glyph unicode="&#xaa;" horiz-adv-x="2484" d="M1462 2048h-878v292h-292v584h292v294h584v146h294v292h-732v-292h-438v438h292v294h1024v-294h292v-1316h292v-438h-438v292h-292v-292zM730 2486h732v586h-294v-148h-438v-438z" />
<glyph unicode="&#xab;" horiz-adv-x="2924" d="M1462 292h-294v292h-292v292h-292v294h-292v584h292v294h292v292h292v292h294v-584h-294v-294h-292v-584h292v-294h294v-584zM2632 292h-292v292h-294v292h-292v294h-292v584h292v294h292v292h294v292h292v-584h-292v-294h-294v-584h294v-294h292v-584z" />
<glyph unicode="&#xac;" horiz-adv-x="3508" d="M3216 584h-438v1024h-2486v440h2924v-1464z" />
<glyph unicode="&#xad;" horiz-adv-x="2924" d="M2632 1462h-2340v586h2340v-586z" />
<glyph unicode="&#xae;" horiz-adv-x="4680" d="M2924 3802h-1170v294h1170v-294zM1754 3510h-586v292h586v-292zM3510 3510h-586v292h586v-292zM1168 3218h-292v292h292v-292zM3802 3218h-292v292h292v-292zM876 2632h-292v586h292v-586zM1754 876h-292v2342h1462v-294h-1170v-876h1170v-294h-292v-292h-292v292h-586 v-878zM4094 2632h-292v586h292v-586zM3216 2048h-292v876h292v-876zM584 1462h-292v1170h292v-1170zM4388 1462h-294v1170h294v-1170zM876 876h-292v586h292v-586zM2924 1170h-292v292h292v-292zM4094 876h-292v586h292v-586zM3216 876h-292v294h292v-294zM1168 584h-292 v292h292v-292zM3802 584h-292v292h292v-292zM1754 292h-586v292h586v-292zM3510 292h-586v292h586v-292zM2924 0h-1170v292h1170v-292z" />
<glyph unicode="&#xaf;" horiz-adv-x="2632" d="M2340 3364h-2048v438h2048v-438z" />
<glyph unicode="&#xb0;" horiz-adv-x="2046" d="M1462 2632h-878v292h-292v878h292v294h878v-294h292v-878h-292v-292zM730 3072h586v584h-586v-584z" />
<glyph unicode="&#xb1;" horiz-adv-x="3802" d="M2192 1024h-584v730h-1316v440h1316v730h584v-730h1318v-440h-1318v-730zM3510 292h-3218v438h3218v-438z" />
<glyph unicode="&#xb2;" horiz-adv-x="1900" d="M1608 2048h-1316v584h292v292h292v294h292v584h-438v-292h-438v292h292v294h732v-294h292v-584h-292v-294h-294v-292h-292v-292h878v-292z" />
<glyph unicode="&#xb3;" horiz-adv-x="2046" d="M1462 2048h-878v292h-292v292h438v-292h586v584h-440v294h440v584h-586v-292h-438v292h292v294h878v-294h292v-584h-292v-294h292v-584h-292v-292z" />
<glyph unicode="&#xb4;" horiz-adv-x="1754" d="M876 3218h-584v292h292v292h292v294h586v-294h-294v-292h-292v-292z" />
<glyph unicode="&#xb5;" horiz-adv-x="3070" d="M876 -1170h-584v4094h584v-2048h292v-292h732v292h292v2048h586v-2924h-586v292h-292v-292h-732v292h-292v-1462z" />
<glyph unicode="&#xb6;" horiz-adv-x="3070" d="M1900 -876h-438v2924h-586v292h-292v292h-292v878h292v292h292v294h1902v-4972h-438v4678h-440v-4678z" />
<glyph unicode="&#xb7;" horiz-adv-x="1168" d="M876 1754h-584v586h584v-586z" />
<glyph unicode="&#xb8;" horiz-adv-x="1900" d="M1316 -1170h-1024v294h730v292h-584v292h292v292h292v-292h294v-292h292v-292h-292v-294z" />
<glyph unicode="&#xb9;" horiz-adv-x="1460" d="M1168 2048h-438v1462h-438v292h438v294h438v-2048z" />
<glyph unicode="&#xba;" horiz-adv-x="2192" d="M1608 2048h-1024v292h-292v1462h292v294h1024v-294h292v-1462h-292v-292zM730 2340h732v1462h-732v-1462z" />
<glyph unicode="&#xbb;" horiz-adv-x="2924" d="M584 292h-292v584h292v294h292v584h-292v294h-292v584h292v-292h292v-292h292v-294h294v-584h-294v-294h-292v-292h-292v-292zM1754 292h-292v584h292v294h292v584h-292v294h-292v584h292v-292h292v-292h294v-294h292v-584h-292v-294h-294v-292h-292v-292z" />
<glyph unicode="&#xbc;" horiz-adv-x="4240" d="M1168 2048h-438v1462h-438v292h438v294h438v-2048zM1316 0h-440v584h292v586h294v584h292v586h292v584h294v586h292v586h438v-586h-292v-586h-292v-584h-294v-586h-292v-584h-292v-586h-292v-584zM3656 0h-440v292h-876v878h292v-586h584v1170h-292v294h732v-1464h292 v-292h-292v-292zM2924 1170h-292v584h292v-584z" />
<glyph unicode="&#xbd;" horiz-adv-x="4240" d="M1168 2048h-438v1462h-438v292h438v294h438v-2048zM1316 0h-440v584h292v586h294v584h292v586h292v584h294v586h292v586h438v-586h-292v-586h-292v-584h-294v-586h-292v-584h-292v-586h-292v-584zM3948 0h-1316v584h292v292h292v294h294v584h-440v-292h-438v292h292v294 h732v-294h292v-584h-292v-294h-292v-292h-294v-292h878v-292z" />
<glyph unicode="&#xbe;" horiz-adv-x="4532" d="M1462 2048h-878v292h-292v292h438v-292h586v584h-440v294h440v584h-586v-292h-438v292h292v294h878v-294h292v-584h-292v-294h292v-584h-292v-292zM1608 0h-440v584h294v586h292v584h292v586h294v584h292v586h292v586h440v-586h-294v-586h-292v-584h-292v-586h-294v-584 h-292v-586h-292v-584zM3948 0h-438v292h-878v878h292v-586h586v1170h-294v294h732v-1464h292v-292h-292v-292zM3216 1170h-292v584h292v-584z" />
<glyph unicode="&#xbf;" d="M2046 2340h-584v584h584v-584zM2340 -1170h-1464v294h-292v292h-292v1168h292v292h292v294h292v292h294v438h584v-730h-292v-294h-292v-292h-294v-292h-292v-584h292v-292h878v292h294v292h584v-584h-292v-292h-292v-294z" />
<glyph unicode="&#xc0;" horiz-adv-x="3802" d="M2340 4388h-586v292h-292v292h-294v294h586v-294h292v-292h294v-292zM876 0h-584v876h292v878h292v878h292v878h294v586h878v-586h292v-878h292v-878h292v-878h294v-876h-586v876h-2048v-876zM1168 1462h1464v292h-292v878h-294v586h-292v-586h-292v-878h-294v-292z" />
<glyph unicode="&#xc1;" horiz-adv-x="3802" d="M2046 4388h-584v292h292v292h292v294h586v-294h-292v-292h-294v-292zM876 0h-584v876h292v878h292v878h292v878h294v586h878v-586h292v-878h292v-878h292v-878h294v-876h-586v876h-2048v-876zM1168 1462h1464v292h-292v878h-294v586h-292v-586h-292v-878h-294v-292z" />
<glyph unicode="&#xc2;" horiz-adv-x="3802" d="M1462 4388h-586v292h292v292h294v294h878v-294h292v-292h292v-292h-584v292h-294v292h-292v-292h-292v-292zM876 0h-584v876h292v878h292v878h292v878h294v586h878v-586h292v-878h292v-878h292v-878h294v-876h-586v876h-2048v-876zM1168 1462h1464v292h-292v878h-294v586 h-292v-586h-292v-878h-294v-292z" />
<glyph unicode="&#xc3;" horiz-adv-x="3802" d="M2632 4534h-878v292h-586v294h878v-294h586v-292zM2924 4826h-292v294h292v-294zM1168 4534h-292v292h292v-292zM876 0h-584v876h292v878h292v878h292v878h294v586h878v-586h292v-878h292v-878h292v-878h294v-876h-586v876h-2048v-876zM1168 1462h1464v292h-292v878h-294 v586h-292v-586h-292v-878h-294v-292z" />
<glyph unicode="&#xc4;" horiz-adv-x="3802" d="M1754 4534h-586v586h586v-586zM2632 4534h-586v586h586v-586zM876 0h-584v876h292v878h292v878h292v878h294v586h878v-586h292v-878h292v-878h292v-878h294v-876h-586v876h-2048v-876zM1168 1462h1464v292h-292v878h-294v586h-292v-586h-292v-878h-294v-292z" />
<glyph unicode="&#xc5;" horiz-adv-x="3802" d="M2192 5266h-584v292h584v-292zM1608 4680h-292v586h292v-586zM2486 4680h-294v586h294v-586zM2192 4388h-584v292h584v-292zM876 0h-584v876h292v878h292v878h292v878h294v586h878v-586h292v-878h292v-878h292v-878h294v-876h-586v876h-2048v-876zM1168 1462h1464v292 h-292v878h-294v586h-292v-586h-292v-878h-294v-292z" />
<glyph unicode="&#xc6;" horiz-adv-x="6142" d="M876 0h-584v584h292v586h292v584h292v586h294v584h292v586h292v586h3804v-586h-2340v-1024h2048v-586h-2048v-1316h2340v-584h-2926v876h-1756v-292h-292v-584zM1462 1462h1462v2048h-584v-586h-294v-584h-292v-586h-292v-292z" />
<glyph unicode="&#xc7;" horiz-adv-x="4094" d="M2486 -1170h-1024v294h730v292h-584v292h292v292h-732v292h-292v292h-292v292h-292v2342h292v292h292v292h292v294h1756v-294h292v-292h294v-292h292v-586h-586v292h-292v294h-292v292h-1170v-292h-294v-294h-292v-1754h292v-294h294v-292h1170v292h292v294h292v292h586 v-586h-292v-292h-294v-292h-292v-292h-732v-292h294v-292h292v-292h-292v-294z" />
<glyph unicode="&#xc8;" horiz-adv-x="3508" d="M2340 4388h-586v292h-292v292h-294v294h586v-294h292v-292h294v-292zM3216 0h-2924v4096h2924v-586h-2340v-1024h2048v-586h-2048v-1316h2340v-584z" />
<glyph unicode="&#xc9;" horiz-adv-x="3508" d="M1754 4388h-586v292h294v292h292v294h586v-294h-294v-292h-292v-292zM3216 0h-2924v4096h2924v-586h-2340v-1024h2048v-586h-2048v-1316h2340v-584z" />
<glyph unicode="&#xca;" horiz-adv-x="3508" d="M1316 4388h-586v292h292v292h294v294h876v-294h294v-292h292v-292h-586v292h-292v292h-292v-292h-292v-292zM3216 0h-2924v4096h2924v-586h-2340v-1024h2048v-586h-2048v-1316h2340v-584z" />
<glyph unicode="&#xcb;" horiz-adv-x="3508" d="M1608 4534h-586v586h586v-586zM2486 4534h-586v586h586v-586zM3216 0h-2924v4096h2924v-586h-2340v-1024h2048v-586h-2048v-1316h2340v-584z" />
<glyph unicode="&#xcc;" horiz-adv-x="1752" d="M1460 4388h-584v292h-292v292h-292v294h584v-294h292v-292h292v-292zM1314 0h-584v4096h584v-4096z" />
<glyph unicode="&#xcd;" horiz-adv-x="1754" d="M876 4388h-584v292h292v292h292v294h586v-294h-294v-292h-292v-292zM1022 0h-584v4096h584v-4096z" />
<glyph unicode="&#xce;" horiz-adv-x="2630" d="M876 4388h-584v292h292v292h292v294h876v-294h294v-292h292v-292h-586v292h-292v292h-292v-292h-292v-292zM1606 0h-584v4096h584v-4096z" />
<glyph unicode="&#xcf;" horiz-adv-x="2046" d="M876 4534h-584v586h584v-586zM1754 4534h-586v586h586v-586zM1314 0h-584v4096h584v-4096z" />
<glyph unicode="&#xd0;" horiz-adv-x="4386" d="M3216 0h-2340v2048h-584v292h584v1756h2340v-294h294v-292h292v-292h292v-2342h-292v-292h-292v-292h-294v-292zM1462 584h1462v292h292v294h294v1754h-294v294h-292v292h-1462v-1170h878v-292h-878v-1464z" />
<glyph unicode="&#xd1;" horiz-adv-x="3508" d="M2486 4534h-878v292h-586v294h878v-294h586v-292zM2778 4826h-292v294h292v-294zM1022 4534h-292v292h292v-292zM876 0h-584v4096h876v-586h294v-586h292v-584h292v-586h294v-584h292v2926h584v-4096h-876v584h-294v586h-292v584h-292v586h-294v584h-292v-2924z" />
<glyph unicode="&#xd2;" horiz-adv-x="4094" d="M2486 4388h-586v292h-292v292h-292v294h584v-294h292v-292h294v-292zM2924 0h-1756v292h-292v292h-292v292h-292v2342h292v292h292v292h292v294h1756v-294h292v-292h294v-292h292v-2342h-292v-292h-294v-292h-292v-292zM1462 584h1170v292h292v294h292v1754h-292v294 h-292v292h-1170v-292h-294v-294h-292v-1754h292v-294h294v-292z" />
<glyph unicode="&#xd3;" horiz-adv-x="4094" d="M2192 4388h-584v292h292v292h292v294h586v-294h-292v-292h-294v-292zM2924 0h-1756v292h-292v292h-292v292h-292v2342h292v292h292v292h292v294h1756v-294h292v-292h294v-292h292v-2342h-292v-292h-294v-292h-292v-292zM1462 584h1170v292h292v294h292v1754h-292v294 h-292v292h-1170v-292h-294v-294h-292v-1754h292v-294h294v-292z" />
<glyph unicode="&#xd4;" horiz-adv-x="4094" d="M1608 4388h-586v292h294v292h292v294h878v-294h292v-292h292v-292h-584v292h-294v292h-292v-292h-292v-292zM2924 0h-1756v292h-292v292h-292v292h-292v2342h292v292h292v292h292v294h1756v-294h292v-292h294v-292h292v-2342h-292v-292h-294v-292h-292v-292zM1462 584 h1170v292h292v294h292v1754h-292v294h-292v292h-1170v-292h-294v-294h-292v-1754h292v-294h294v-292z" />
<glyph unicode="&#xd5;" horiz-adv-x="4094" d="M2778 4534h-878v292h-584v294h876v-294h586v-292zM3070 4826h-292v294h292v-294zM1316 4534h-294v292h294v-292zM2924 0h-1756v292h-292v292h-292v292h-292v2342h292v292h292v292h292v294h1756v-294h292v-292h294v-292h292v-2342h-292v-292h-294v-292h-292v-292z M1462 584h1170v292h292v294h292v1754h-292v294h-292v292h-1170v-292h-294v-294h-292v-1754h292v-294h294v-292z" />
<glyph unicode="&#xd6;" horiz-adv-x="4094" d="M1900 4534h-584v586h584v-586zM2778 4534h-586v586h586v-586zM2924 0h-1756v292h-292v292h-292v292h-292v2342h292v292h292v292h292v294h1756v-294h292v-292h294v-292h292v-2342h-292v-292h-294v-292h-292v-292zM1462 584h1170v292h292v294h292v1754h-292v294h-292v292 h-1170v-292h-294v-294h-292v-1754h292v-294h294v-292z" />
<glyph unicode="&#xd7;" horiz-adv-x="3656" d="M1022 292h-730v292h292v292h292v294h292v292h294v292h-294v294h-292v292h-292v292h-292v292h730v-292h294v-292h292v-292h438v292h294v292h292v292h732v-292h-294v-292h-292v-292h-292v-294h-294v-292h294v-292h292v-294h292v-292h294v-292h-732v292h-292v292h-294v294 h-438v-294h-292v-292h-294v-292z" />
<glyph unicode="&#xd8;" horiz-adv-x="4094" d="M2924 0h-1756v292h-584v584h-292v2342h292v292h292v292h292v294h1756v-294h586v-584h292v-2342h-292v-292h-294v-292h-292v-292zM3802 3802h-292v294h292v-294zM1462 584h1170v292h292v294h292v1754h-292v294h-292v292h-1170v-292h-294v-294h-292v-1754h292v-294h294 v-292zM2924 2632h-292v292h292v-292zM2632 2340h-292v292h292v-292zM2340 2048h-294v292h294v-292zM2046 1754h-292v294h292v-294zM1754 1462h-292v292h292v-292zM1462 1170h-294v292h294v-292zM584 0h-292v292h292v-292z" />
<glyph unicode="&#xd9;" horiz-adv-x="3508" d="M2192 4388h-584v292h-292v292h-294v294h586v-294h292v-292h292v-292zM2632 0h-1756v292h-292v292h-292v3512h584v-3220h292v-292h1172v292h292v3220h584v-3512h-292v-292h-292v-292z" />
<glyph unicode="&#xda;" horiz-adv-x="3508" d="M1900 4388h-584v292h292v292h292v294h586v-294h-294v-292h-292v-292zM2632 0h-1756v292h-292v292h-292v3512h584v-3220h292v-292h1172v292h292v3220h584v-3512h-292v-292h-292v-292z" />
<glyph unicode="&#xdb;" horiz-adv-x="3508" d="M1316 4388h-586v292h292v292h294v294h876v-294h294v-292h292v-292h-586v292h-292v292h-292v-292h-292v-292zM2632 0h-1756v292h-292v292h-292v3512h584v-3220h292v-292h1172v292h292v3220h584v-3512h-292v-292h-292v-292z" />
<glyph unicode="&#xdc;" horiz-adv-x="3508" d="M1608 4534h-586v586h586v-586zM2486 4534h-586v586h586v-586zM2632 0h-1756v292h-292v292h-292v3512h584v-3220h292v-292h1172v292h292v3220h584v-3512h-292v-292h-292v-292z" />
<glyph unicode="&#xdd;" horiz-adv-x="3508" d="M1900 4388h-584v292h292v292h292v294h586v-294h-294v-292h-292v-292zM2046 0h-584v1754h-294v586h-292v584h-292v586h-292v586h584v-586h292v-586h294v-584h584v584h294v586h292v586h584v-586h-292v-586h-292v-584h-292v-586h-294v-1754z" />
<glyph unicode="&#xde;" horiz-adv-x="3508" d="M876 0h-584v4096h584v-586h1756v-292h292v-294h292v-1754h-292v-294h-292v-292h-1756v-584zM876 1170h1464v292h292v1170h-292v292h-1464v-1754z" />
<glyph unicode="&#xdf;" horiz-adv-x="3508" d="M876 0h-584v3510h292v292h292v294h1464v-294h292v-292h292v-586h-292v-292h-292v-584h292v-294h292v-292h292v-878h-292v-292h-292v-292h-1170v584h878v292h146v586h-294v292h-292v294h-292v584h292v292h292v586h-1024v-292h-292v-3218z" />
<glyph unicode="&#xe0;" d="M2046 3218h-584v292h-294v292h-292v294h586v-294h292v-292h292v-292zM2046 0h-1170v292h-292v292h-292v586h292v292h584v292h1172v294h-294v292h-878v-292h-876v292h292v292h292v292h1464v-292h292v-292h292v-2340h-584v292h-294v-292zM1022 584h1024v292h294v586h-294 v-292h-1024v-586z" />
<glyph unicode="&#xe1;" d="M1754 3218h-586v292h294v292h292v294h586v-294h-294v-292h-292v-292zM2046 0h-1170v292h-292v292h-292v586h292v292h584v292h1172v294h-294v292h-878v-292h-876v292h292v292h292v292h1464v-292h292v-292h292v-2340h-584v292h-294v-292zM1022 584h1024v292h294v586h-294 v-292h-1024v-586z" />
<glyph unicode="&#xe2;" d="M1168 3218h-584v292h292v292h292v294h878v-294h294v-292h292v-292h-586v292h-292v292h-292v-292h-294v-292zM2046 0h-1170v292h-292v292h-292v586h292v292h584v292h1172v294h-294v292h-878v-292h-876v292h292v292h292v292h1464v-292h292v-292h292v-2340h-584v292h-294 v-292zM1022 584h1024v292h294v586h-294v-292h-1024v-586z" />
<glyph unicode="&#xe3;" d="M2340 3364h-878v292h-586v292h878v-292h586v-292zM2632 3656h-292v292h292v-292zM876 3364h-292v292h292v-292zM2046 0h-1170v292h-292v292h-292v586h292v292h584v292h1172v294h-294v292h-878v-292h-876v292h292v292h292v292h1464v-292h292v-292h292v-2340h-584v292h-294 v-292zM1022 584h1024v292h294v586h-294v-292h-1024v-586z" />
<glyph unicode="&#xe4;" d="M1462 3364h-586v584h586v-584zM2340 3364h-586v584h586v-584zM2046 0h-1170v292h-292v292h-292v586h292v292h584v292h1172v294h-294v292h-878v-292h-876v292h292v292h292v292h1464v-292h292v-292h292v-2340h-584v292h-294v-292zM1022 584h1024v292h294v586h-294v-292 h-1024v-586z" />
<glyph unicode="&#xe5;" d="M1900 4096h-584v292h584v-292zM1316 3510h-294v586h294v-586zM2192 3510h-292v586h292v-586zM1900 3218h-584v292h584v-292zM2046 0h-1170v292h-292v292h-292v586h292v292h584v292h1172v294h-294v292h-878v-292h-876v292h292v292h292v292h1464v-292h292v-292h292v-2340 h-584v292h-294v-292zM1022 584h1024v292h294v586h-294v-292h-1024v-586z" />
<glyph unicode="&#xe6;" horiz-adv-x="5264" d="M2046 0h-1170v292h-292v292h-292v586h292v292h584v292h1172v294h-294v292h-878v-292h-876v292h292v292h292v292h1464v-292h584v292h1464v-292h292v-292h292v-1024h-2048v-440h292v-292h878v292h878v-292h-292v-292h-292v-292h-1464v292h-292v292h-292v-292h-294v-292z M2924 1754h1464v294h-294v292h-878v-292h-292v-294zM1022 584h1024v292h294v586h-294v-292h-1024v-586z" />
<glyph unicode="&#xe7;" d="M2046 -1170h-1024v294h732v292h-586v292h294v292h-586v292h-292v292h-292v1756h292v292h292v292h1464v-292h292v-292h292v-586h-584v294h-294v292h-878v-292h-292v-1172h292v-292h878v292h294v294h584v-586h-292v-292h-292v-292h-586v-292h292v-292h294v-292h-294v-294z " />
<glyph unicode="&#xe8;" d="M2046 3218h-584v292h-294v292h-292v294h586v-294h292v-292h292v-292zM2340 0h-1464v292h-292v292h-292v1756h292v292h292v292h1464v-292h292v-292h292v-1024h-2048v-440h292v-292h878v292h878v-292h-292v-292h-292v-292zM876 1754h1464v294h-294v292h-878v-292h-292v-294 z" />
<glyph unicode="&#xe9;" d="M1754 3218h-586v292h294v292h292v294h586v-294h-294v-292h-292v-292zM2340 0h-1464v292h-292v292h-292v1756h292v292h292v292h1464v-292h292v-292h292v-1024h-2048v-440h292v-292h878v292h878v-292h-292v-292h-292v-292zM876 1754h1464v294h-294v292h-878v-292h-292v-294 z" />
<glyph unicode="&#xea;" d="M1168 3218h-584v292h292v292h292v294h878v-294h294v-292h292v-292h-586v292h-292v292h-292v-292h-294v-292zM2340 0h-1464v292h-292v292h-292v1756h292v292h292v292h1464v-292h292v-292h292v-1024h-2048v-440h292v-292h878v292h878v-292h-292v-292h-292v-292zM876 1754 h1464v294h-294v292h-878v-292h-292v-294z" />
<glyph unicode="&#xeb;" d="M1462 3364h-586v584h586v-584zM2340 3364h-586v584h586v-584zM2340 0h-1464v292h-292v292h-292v1756h292v292h292v292h1464v-292h292v-292h292v-1024h-2048v-440h292v-292h878v292h878v-292h-292v-292h-292v-292zM876 1754h1464v294h-294v292h-878v-292h-292v-294z" />
<glyph unicode="&#xec;" horiz-adv-x="1752" d="M1460 3218h-584v292h-292v292h-292v294h584v-294h292v-292h292v-292zM1314 0h-584v2924h584v-2924z" />
<glyph unicode="&#xed;" horiz-adv-x="1754" d="M876 3218h-584v292h292v292h292v294h586v-294h-294v-292h-292v-292zM1022 0h-584v2924h584v-2924z" />
<glyph unicode="&#xee;" horiz-adv-x="2630" d="M876 3218h-584v292h292v292h292v294h876v-294h294v-292h292v-292h-586v292h-292v292h-292v-292h-292v-292zM1606 0h-584v2924h584v-2924z" />
<glyph unicode="&#xef;" horiz-adv-x="2046" d="M876 3364h-584v584h584v-584zM1754 3364h-586v584h586v-584zM1314 0h-584v2924h584v-2924z" />
<glyph unicode="&#xf0;" d="M2340 0h-1464v292h-292v292h-292v1756h292v292h292v292h1170v-292h294v586h-294v292h-1462v586h1756v-294h292v-292h292v-2926h-292v-292h-292v-292zM1168 584h878v292h294v1172h-294v292h-878v-292h-292v-1172h292v-292z" />
<glyph unicode="&#xf1;" horiz-adv-x="3070" d="M2192 3364h-876v292h-586v292h878v-292h584v-292zM2486 3656h-294v292h294v-292zM730 3364h-292v292h292v-292zM876 0h-584v2924h584v-292h292v292h1024v-292h294v-292h292v-2340h-586v2048h-292v292h-732v-292h-292v-2048z" />
<glyph unicode="&#xf2;" d="M2046 3218h-584v292h-294v292h-292v294h586v-294h292v-292h292v-292zM2340 0h-1464v292h-292v292h-292v1756h292v292h292v292h1464v-292h292v-292h292v-1756h-292v-292h-292v-292zM1168 584h878v292h294v1172h-294v292h-878v-292h-292v-1172h292v-292z" />
<glyph unicode="&#xf3;" d="M1754 3218h-586v292h294v292h292v294h586v-294h-294v-292h-292v-292zM2340 0h-1464v292h-292v292h-292v1756h292v292h292v292h1464v-292h292v-292h292v-1756h-292v-292h-292v-292zM1168 584h878v292h294v1172h-294v292h-878v-292h-292v-1172h292v-292z" />
<glyph unicode="&#xf4;" d="M1168 3218h-584v292h292v292h292v294h878v-294h294v-292h292v-292h-586v292h-292v292h-292v-292h-294v-292zM2340 0h-1464v292h-292v292h-292v1756h292v292h292v292h1464v-292h292v-292h292v-1756h-292v-292h-292v-292zM1168 584h878v292h294v1172h-294v292h-878v-292 h-292v-1172h292v-292z" />
<glyph unicode="&#xf5;" d="M2340 3364h-878v292h-586v292h878v-292h586v-292zM2632 3656h-292v292h292v-292zM876 3364h-292v292h292v-292zM2340 0h-1464v292h-292v292h-292v1756h292v292h292v292h1464v-292h292v-292h292v-1756h-292v-292h-292v-292zM1168 584h878v292h294v1172h-294v292h-878v-292 h-292v-1172h292v-292z" />
<glyph unicode="&#xf6;" d="M1462 3364h-586v584h586v-584zM2340 3364h-586v584h586v-584zM2340 0h-1464v292h-292v292h-292v1756h292v292h292v292h1464v-292h292v-292h292v-1756h-292v-292h-292v-292zM1168 584h878v292h294v1172h-294v292h-878v-292h-292v-1172h292v-292z" />
<glyph unicode="&#xf7;" horiz-adv-x="3802" d="M2192 2340h-584v584h584v-584zM3510 1316h-3218v584h3218v-584zM2192 292h-584v584h584v-584z" />
<glyph unicode="&#xf8;" d="M2340 0h-1464v292h-292v292h-292v1756h292v292h292v292h1464v-292h292v-292h292v-1756h-292v-292h-292v-292zM2924 2632h-292v292h292v-292zM1168 584h878v292h294v1172h-294v292h-878v-292h-292v-1172h292v-292zM2046 1754h-292v294h292v-294zM1754 1170h-292v584h292 v-584zM1462 876h-294v294h294v-294zM584 0h-292v292h292v-292z" />
<glyph unicode="&#xf9;" horiz-adv-x="3070" d="M2046 3218h-584v292h-294v292h-292v294h586v-294h292v-292h292v-292zM1900 0h-1024v292h-292v292h-292v2340h584v-2048h292v-292h732v292h292v2048h586v-2924h-586v292h-292v-292z" />
<glyph unicode="&#xfa;" horiz-adv-x="3070" d="M1754 3218h-586v292h294v292h292v294h586v-294h-294v-292h-292v-292zM1900 0h-1024v292h-292v292h-292v2340h584v-2048h292v-292h732v292h292v2048h586v-2924h-586v292h-292v-292z" />
<glyph unicode="&#xfb;" horiz-adv-x="3070" d="M1168 3218h-584v292h292v292h292v294h732v-294h292v-292h294v-292h-586v292h-292v292h-146v-292h-294v-292zM1900 0h-1024v292h-292v292h-292v2340h584v-2048h292v-292h732v292h292v2048h586v-2924h-586v292h-292v-292z" />
<glyph unicode="&#xfc;" horiz-adv-x="3070" d="M1316 3364h-586v584h586v-584zM2340 3364h-586v584h586v-584zM1900 0h-1024v292h-292v292h-292v2340h584v-2048h292v-292h732v292h292v2048h586v-2924h-586v292h-292v-292z" />
<glyph unicode="&#xfd;" horiz-adv-x="3508" d="M1900 3218h-584v292h292v292h292v294h586v-294h-294v-292h-292v-292zM1168 -1170h-876v586h876v584h294v584h-294v586h-292v584h-292v586h-292v584h584v-584h292v-586h294v-584h584v584h294v586h292v584h584v-584h-292v-586h-292v-584h-292v-586h-294v-584h-292v-584 h-292v-292h-294v-294z" />
<glyph unicode="&#xfe;" d="M876 -1170h-584v5266h584v-1464h292v292h1172v-292h292v-292h292v-1756h-292v-292h-292v-292h-1172v292h-292v-1462zM1168 584h878v292h294v1172h-294v292h-878v-292h-292v-1172h292v-292z" />
<glyph unicode="&#xff;" horiz-adv-x="3508" d="M1608 3364h-586v584h586v-584zM2486 3364h-586v584h586v-584zM1168 -1170h-876v586h876v584h294v584h-294v586h-292v584h-292v586h-292v584h584v-584h292v-586h294v-584h584v584h294v586h292v584h584v-584h-292v-586h-292v-584h-292v-586h-294v-584h-292v-584h-292v-292 h-294v-294z" />
<glyph unicode="&#x13f;" d="M2924 0h-2632v4096h584v-3512h2048v-584zM2632 1754h-586v586h586v-586z" />
<glyph unicode="&#x140;" horiz-adv-x="2192" d="M876 0h-584v4096h584v-4096zM1900 1754h-584v586h584v-586z" />
<glyph unicode="&#x152;" horiz-adv-x="6142" d="M2632 0h-1464v292h-292v292h-292v292h-292v2342h292v292h292v292h292v294h1464v-294h292v294h2926v-586h-2340v-1024h2048v-586h-2048v-1316h2340v-584h-2926v292h-292v-292zM1462 584h1170v292h292v2342h-292v292h-1170v-292h-294v-294h-292v-1754h292v-294h294v-292z " />
<glyph unicode="&#x153;" horiz-adv-x="5264" d="M2340 0h-1464v292h-292v292h-292v1756h292v292h292v292h1464v-292h584v292h1464v-292h292v-292h292v-1024h-2048v-440h292v-292h878v292h878v-292h-292v-292h-292v-292h-1464v292h-584v-292zM1168 584h878v292h294v1172h-294v292h-878v-292h-292v-1172h292v-292z M2924 1754h1464v294h-294v292h-878v-292h-292v-294z" />
<glyph unicode="&#x178;" horiz-adv-x="3508" d="M1608 4534h-586v586h586v-586zM2486 4534h-586v586h586v-586zM2046 0h-584v1754h-294v586h-292v584h-292v586h-292v586h584v-586h292v-586h294v-584h584v584h294v586h292v586h584v-586h-292v-586h-292v-584h-292v-586h-294v-1754z" />
<glyph unicode="&#x2000;" horiz-adv-x="2779" />
<glyph unicode="&#x2001;" horiz-adv-x="5558" />
<glyph unicode="&#x2002;" horiz-adv-x="2779" />
<glyph unicode="&#x2003;" horiz-adv-x="5558" />
<glyph unicode="&#x2004;" horiz-adv-x="1852" />
<glyph unicode="&#x2005;" horiz-adv-x="1389" />
<glyph unicode="&#x2006;" horiz-adv-x="926" />
<glyph unicode="&#x2007;" horiz-adv-x="926" />
<glyph unicode="&#x2008;" horiz-adv-x="694" />
<glyph unicode="&#x2009;" horiz-adv-x="1111" />
<glyph unicode="&#x200a;" horiz-adv-x="308" />
<glyph unicode="&#x2010;" horiz-adv-x="2924" d="M2632 1462h-2340v586h2340v-586z" />
<glyph unicode="&#x2011;" horiz-adv-x="2924" d="M2632 1462h-2340v586h2340v-586z" />
<glyph unicode="&#x2012;" horiz-adv-x="2924" d="M2632 1462h-2340v586h2340v-586z" />
<glyph unicode="&#x2013;" horiz-adv-x="2632" d="M2340 1462h-2048v586h2048v-586z" />
<glyph unicode="&#x2014;" horiz-adv-x="4680" d="M4388 1170h-4096v584h4096v-584z" />
<glyph unicode="&#x2018;" horiz-adv-x="1168" d="M876 3802h-292v294h292v-294zM876 2924h-584v878h292v-292h292v-586z" />
<glyph unicode="&#x2019;" horiz-adv-x="1170" d="M876 3218h-292v292h-292v586h584v-878zM584 2924h-292v294h292v-294z" />
<glyph unicode="&#x201a;" horiz-adv-x="1168" d="M876 292h-292v292h-292v586h584v-878zM584 0h-292v292h292v-292z" />
<glyph unicode="&#x201c;" horiz-adv-x="2046" d="M876 3802h-292v294h292v-294zM1754 3802h-292v294h292v-294zM876 2924h-584v878h292v-292h292v-586zM1754 2924h-586v878h294v-292h292v-586z" />
<glyph unicode="&#x201d;" horiz-adv-x="2046" d="M876 3218h-292v292h-292v586h584v-878zM1754 3218h-292v292h-294v586h586v-878zM584 2924h-292v294h292v-294zM1462 2924h-294v294h294v-294z" />
<glyph unicode="&#x201e;" horiz-adv-x="2046" d="M876 292h-292v292h-292v586h584v-878zM1754 292h-292v292h-294v586h586v-878zM584 0h-292v292h292v-292zM1462 0h-294v292h294v-292z" />
<glyph unicode="&#x2022;" horiz-adv-x="2340" d="M2048 1170h-1756v1754h1756v-1754z" />
<glyph unicode="&#x202f;" horiz-adv-x="1111" />
<glyph unicode="&#x2039;" horiz-adv-x="1754" d="M1462 292h-294v292h-292v292h-292v294h-292v584h292v294h292v292h292v292h294v-584h-294v-294h-292v-584h292v-294h294v-584z" />
<glyph unicode="&#x203a;" horiz-adv-x="1754" d="M584 292h-292v584h292v294h292v584h-292v294h-292v584h292v-292h292v-292h292v-294h294v-584h-294v-294h-292v-292h-292v-292z" />
<glyph unicode="&#x205f;" horiz-adv-x="1389" />
<glyph unicode="&#x2070;" horiz-adv-x="2192" d="M1608 2048h-1024v292h-292v1462h292v294h1024v-294h292v-1462h-292v-292zM730 2340h732v1462h-732v-1462z" />
<glyph unicode="&#x2074;" horiz-adv-x="2192" d="M1608 2048h-440v292h-876v878h292v-586h584v1170h-292v294h732v-1464h292v-292h-292v-292zM876 3218h-292v584h292v-584z" />
<glyph unicode="&#x2075;" horiz-adv-x="2192" d="M1608 2048h-1024v292h-292v292h438v-292h732v584h-1170v878h292v294h1024v-294h-878v-584h878v-294h292v-584h-292v-292z" />
<glyph unicode="&#x2076;" horiz-adv-x="2192" d="M1608 2048h-1024v292h-292v1462h292v294h1024v-294h292v-292h-438v292h-732v-584h878v-294h292v-584h-292v-292zM730 2340h732v584h-732v-584z" />
<glyph unicode="&#x2077;" horiz-adv-x="2192" d="M1022 2048h-438v584h292v586h292v292h294v292h-1170v294h1608v-586h-292v-292h-292v-586h-294v-584z" />
<glyph unicode="&#x2078;" horiz-adv-x="2192" d="M1608 2048h-1024v292h-292v584h292v294h-292v584h292v294h1024v-294h292v-584h-292v-294h292v-584h-292v-292zM730 3218h732v584h-732v-584zM730 2340h732v584h-732v-584z" />
<glyph unicode="&#x2079;" horiz-adv-x="2192" d="M1608 2048h-1024v292h-292v292h438v-292h732v584h-878v294h-292v584h292v294h1024v-294h292v-1462h-292v-292zM730 3218h732v584h-732v-584z" />
<glyph unicode="&#x207a;" horiz-adv-x="2338" d="M1316 2340h-294v584h-730v294h730v584h294v-584h730v-294h-730v-584z" />
<glyph unicode="&#x207c;" horiz-adv-x="2338" d="M2046 3218h-1754v292h1754v-292zM2046 2632h-1754v292h1754v-292z" />
<glyph unicode="&#x207d;" horiz-adv-x="1168" d="M876 4096h-292v292h292v-292zM584 2048h-292v2048h292v-2048zM876 1754h-292v294h292v-294z" />
<glyph unicode="&#x207e;" horiz-adv-x="1168" d="M584 4096h-292v292h292v-292zM876 2048h-292v2048h292v-2048zM584 1754h-292v294h292v-294z" />
<glyph unicode="&#x2080;" horiz-adv-x="2192" d="M1608 0h-1024v292h-292v1462h292v294h1024v-294h292v-1462h-292v-292zM730 292h732v1462h-732v-1462z" />
<glyph unicode="&#x2081;" horiz-adv-x="1460" d="M1168 0h-438v1462h-438v292h438v294h438v-2048z" />
<glyph unicode="&#x2082;" horiz-adv-x="1900" d="M1608 0h-1316v584h292v292h292v294h292v584h-438v-292h-438v292h292v294h732v-294h292v-584h-292v-294h-294v-292h-292v-292h878v-292z" />
<glyph unicode="&#x2083;" horiz-adv-x="2046" d="M1462 0h-878v292h-292v292h438v-292h586v584h-440v294h440v584h-586v-292h-438v292h292v294h878v-294h292v-584h-292v-294h292v-584h-292v-292z" />
<glyph unicode="&#x2084;" horiz-adv-x="2192" d="M1608 0h-440v292h-876v878h292v-586h584v1170h-292v294h732v-1464h292v-292h-292v-292zM876 1170h-292v584h292v-584z" />
<glyph unicode="&#x2085;" horiz-adv-x="2192" d="M1608 0h-1024v292h-292v292h438v-292h732v584h-1170v878h292v294h1024v-294h-878v-584h878v-294h292v-584h-292v-292z" />
<glyph unicode="&#x2086;" horiz-adv-x="2192" d="M1608 0h-1024v292h-292v1462h292v294h1024v-294h292v-292h-438v292h-732v-584h878v-294h292v-584h-292v-292zM730 292h732v584h-732v-584z" />
<glyph unicode="&#x2087;" horiz-adv-x="2192" d="M1022 0h-438v584h292v586h292v292h294v292h-1170v294h1608v-586h-292v-292h-292v-586h-294v-584z" />
<glyph unicode="&#x2088;" horiz-adv-x="2192" d="M1608 0h-1024v292h-292v584h292v294h-292v584h292v294h1024v-294h292v-584h-292v-294h292v-584h-292v-292zM730 1170h732v584h-732v-584zM730 292h732v584h-732v-584z" />
<glyph unicode="&#x2089;" horiz-adv-x="2192" d="M1608 0h-1024v292h-292v292h438v-292h732v584h-878v294h-292v584h292v294h1024v-294h292v-1462h-292v-292zM730 1170h732v584h-732v-584z" />
<glyph unicode="&#x208a;" horiz-adv-x="2338" d="M1316 292h-294v584h-730v294h730v584h294v-584h730v-294h-730v-584z" />
<glyph unicode="&#x208c;" horiz-adv-x="2338" d="M2046 1170h-1754v292h1754v-292zM2046 584h-1754v292h1754v-292z" />
<glyph unicode="&#x208d;" horiz-adv-x="1168" d="M876 2048h-292v292h292v-292zM584 0h-292v2048h292v-2048zM876 -292h-292v292h292v-292z" />
<glyph unicode="&#x208e;" horiz-adv-x="1168" d="M584 2048h-292v292h292v-292zM876 0h-292v2048h292v-2048zM584 -292h-292v292h292v-292z" />
<glyph unicode="&#x20ac;" horiz-adv-x="3802" d="M2924 0h-1462v292h-294v292h-292v292h-292v586h-292v292h292v586h-292v292h292v586h292v292h292v292h294v294h1462v-294h292v-292h294v-292h-878v292h-878v-292h-292v-294h-294v-292h2048v-292h-2048v-586h1756v-292h-1756v-292h294v-294h292v-292h878v292h878v-292h-294 v-292h-292v-292z" />
<glyph unicode="&#x2116;" horiz-adv-x="5704" d="M876 0h-584v4096h876v-586h294v-586h292v-584h292v-586h294v-584h292v2926h584v-4096h-876v584h-294v586h-292v584h-292v586h-294v584h-292v-2924zM5118 876h-1170v294h-292v1462h292v292h1170v-292h294v-1462h-294v-294zM4094 1316h878v1170h-878v-1170zM5412 0h-1756 v438h1756v-438z" />
<glyph unicode="&#x2122;" horiz-adv-x="4826" d="M1022 1754h-292v2048h-584v294h1462v-294h-586v-2048zM2194 1754h-294v2342h586v-586h-292v-1756zM4534 1754h-292v1756h-294v586h586v-2342zM2778 2924h-292v586h292v-586zM3948 2924h-292v586h292v-586zM3070 2340h-292v584h292v-584zM3656 2340h-292v584h292v-584z M3364 1754h-294v586h294v-586z" />
<glyph unicode="&#x2153;" horiz-adv-x="4386" d="M1168 2048h-438v1462h-438v292h438v294h438v-2048zM1316 0h-440v584h292v586h294v584h292v586h292v584h294v586h292v586h438v-586h-292v-586h-292v-584h-294v-586h-292v-584h-292v-586h-292v-584zM3802 0h-878v292h-292v292h438v-292h586v584h-440v294h440v584h-586v-292 h-438v292h292v294h878v-294h292v-584h-292v-294h292v-584h-292v-292z" />
<glyph unicode="&#x2154;" horiz-adv-x="4680" d="M1608 2048h-1316v584h292v292h292v294h292v584h-438v-292h-438v292h292v294h732v-294h292v-584h-292v-294h-294v-292h-292v-292h878v-292zM1608 0h-440v584h294v586h292v584h292v586h294v584h292v586h292v586h440v-586h-294v-586h-292v-584h-292v-586h-294v-584h-292 v-586h-292v-584zM4094 0h-878v292h-292v292h440v-292h584v584h-438v294h438v584h-584v-292h-440v292h292v294h878v-294h294v-584h-294v-294h294v-584h-294v-292z" />
<glyph unicode="&#x2155;" horiz-adv-x="4532" d="M1168 2048h-438v1462h-438v292h438v294h438v-2048zM1316 0h-440v584h292v586h294v584h292v586h292v584h294v586h292v586h438v-586h-292v-586h-292v-584h-294v-586h-292v-584h-292v-586h-292v-584zM3948 0h-1024v292h-292v292h438v-292h732v584h-1170v878h292v294h1024 v-294h-878v-584h878v-294h292v-584h-292v-292z" />
<glyph unicode="&#x2156;" horiz-adv-x="4826" d="M1608 2048h-1316v584h292v292h292v294h292v584h-438v-292h-438v292h292v294h732v-294h292v-584h-292v-294h-294v-292h-292v-292h878v-292zM1608 0h-440v584h294v586h292v584h292v586h294v584h292v586h292v586h440v-586h-294v-586h-292v-584h-292v-586h-294v-584h-292 v-586h-292v-584zM4240 0h-1024v292h-292v292h440v-292h730v584h-1170v878h292v294h1024v-294h-876v-584h876v-294h294v-584h-294v-292z" />
<glyph unicode="&#x2157;" horiz-adv-x="4826" d="M1462 2048h-878v292h-292v292h438v-292h586v584h-440v294h440v584h-586v-292h-438v292h292v294h878v-294h292v-584h-292v-294h292v-584h-292v-292zM1608 0h-440v584h294v586h292v584h292v586h294v584h292v586h292v586h440v-586h-294v-586h-292v-584h-292v-586h-294v-584 h-292v-586h-292v-584zM4240 0h-1024v292h-292v292h440v-292h730v584h-1170v878h292v294h1024v-294h-876v-584h876v-294h294v-584h-294v-292z" />
<glyph unicode="&#x2158;" horiz-adv-x="5118" d="M1608 2048h-440v292h-876v878h292v-586h584v1170h-292v294h732v-1464h292v-292h-292v-292zM1900 0h-438v584h292v586h292v584h294v586h292v584h292v586h292v586h440v-586h-292v-586h-294v-584h-292v-586h-292v-584h-294v-586h-292v-584zM876 3218h-292v584h292v-584z M4534 0h-1024v292h-294v292h440v-292h732v584h-1172v878h294v294h1024v-294h-878v-584h878v-294h292v-584h-292v-292z" />
<glyph unicode="&#x215f;" horiz-adv-x="3362" d="M1168 2048h-438v1462h-438v292h438v294h438v-2048zM1316 0h-440v584h292v586h294v584h292v586h292v584h294v586h292v586h438v-586h-292v-586h-292v-584h-294v-586h-292v-584h-292v-586h-292v-584z" />
<glyph unicode="&#x25fc;" horiz-adv-x="2920" d="M0 2920h2920v-2920h-2920v2920z" />
</font>
</defs>
</svg>
