<?xml version="1.0" standalone="no"?>
<!DOCTYPE svg PUBLIC "-//W3C//DTD SVG 1.1//EN" "http://www.w3.org/Graphics/SVG/1.1/DTD/svg11.dtd" >
<svg xmlns="http://www.w3.org/2000/svg" xmlns:xlink="http://www.w3.org/1999/xlink" version="1.1">
<metadata></metadata>
<defs>
<font id="pp_neuebitregular" horiz-adv-x="2924" >
<font-face units-per-em="4096" ascent="3276" descent="-820" />
<missing-glyph horiz-adv-x="1460" />
<glyph unicode="&#x28;&#x28;PPF&#x29;&#x29;" horiz-adv-x="14620" d="M7892 4096h-292v292h292v-292zM10818 4096h-292v292h292v-292zM584 0h-292v4096h2340v-294h-2048v-1754h2048v-294h-2048v-1754zM4092 0h-292v4096h2340v-294h-2048v-1754h2048v-294h-2048v-1754zM7600 1462h-292v2634h292v-2634zM8478 1754h-292v2342h1754v-294h-1462 v-878h1462v-292h-292v-292h-292v292h-878v-878zM11112 1462h-294v2634h294v-2634zM11988 0h-292v4096h2632v-294h-2340v-1462h2048v-292h-2048v-2048zM2924 3510h-292v292h292v-292zM6432 3510h-292v292h292v-292zM10234 2924h-294v878h294v-878zM3216 2340h-292v1170h292 v-1170zM6724 2340h-292v1170h292v-1170zM2924 2048h-292v292h292v-292zM6432 2048h-292v292h292v-292zM9940 2048h-292v292h292v-292zM10234 1754h-294v294h294v-294zM7892 1170h-292v292h292v-292zM10818 1170h-292v292h292v-292z" />
<glyph horiz-adv-x="0" />
<glyph horiz-adv-x="1365" />
<glyph unicode=" "  horiz-adv-x="1460" />
<glyph unicode="&#x09;" horiz-adv-x="1460" />
<glyph unicode="&#xa0;" horiz-adv-x="1460" />
<glyph unicode="!" horiz-adv-x="876" d="M584 1024h-292v3072h292v-3072zM584 0h-292v584h292v-584z" />
<glyph unicode="&#x22;" horiz-adv-x="1460" d="M584 2632h-292v1464h292v-1464zM1168 2632h-292v1464h292v-1464z" />
<glyph unicode="#" horiz-adv-x="3216" d="M1462 3218h-294v878h294v-878zM2632 3218h-292v878h292v-878zM1168 876h-292v586h-584v292h584v586h-584v292h584v586h292v-586h878v586h294v-586h584v-292h-584v-586h584v-292h-584v-586h-294v586h-878v-586zM1168 1754h878v586h-878v-586zM876 0h-292v876h292v-876z M2046 0h-292v876h292v-876z" />
<glyph unicode="$" horiz-adv-x="3216" d="M1754 -584h-292v584h-586v292h586v1756h-294v292h294v1462h-586v294h586v584h292v-584h586v-294h-586v-1462h292v-292h-292v-1756h586v-292h-586v-584zM876 3510h-292v292h292v-292zM2632 3510h-292v292h292v-292zM584 2632h-292v878h292v-878zM2924 2924h-292v586h292 v-586zM1168 2340h-584v292h584v-292zM2632 1754h-586v294h586v-294zM2924 584h-292v1170h292v-1170zM584 584h-292v586h292v-586zM876 292h-292v292h292v-292zM2632 292h-292v292h292v-292z" />
<glyph unicode="%" horiz-adv-x="4388" d="M1462 3802h-878v294h878v-294zM3218 3510h-294v586h294v-586zM584 2340h-292v1462h292v-1462zM1754 2340h-292v1462h292v-1462zM2924 2924h-292v586h292v-586zM2632 2340h-292v584h292v-584zM1462 2048h-878v292h878v-292zM2340 1754h-292v586h292v-586zM3802 1754h-878 v294h878v-294zM2048 1170h-294v584h294v-584zM2924 292h-292v1462h292v-1462zM4096 292h-294v1462h294v-1462zM1754 584h-292v586h292v-586zM1462 0h-292v584h292v-584zM3802 0h-878v292h878v-292z" />
<glyph unicode="&#x26;" horiz-adv-x="4094" d="M2046 3802h-878v294h878v-294zM1168 3510h-292v292h292v-292zM2340 3510h-294v292h294v-292zM876 2924h-292v586h292v-586zM2632 2924h-292v586h292v-586zM1168 2632h-292v292h292v-292zM2340 2632h-294v292h294v-292zM1462 2340h-294v292h294v-292zM2046 2340h-292v292 h292v-292zM1168 2048h-292v292h292v-292zM1754 2048h-292v292h292v-292zM876 1754h-292v294h292v-294zM2046 1754h-292v294h292v-294zM584 584h-292v1170h292v-1170zM2340 1462h-294v292h294v-292zM3510 1170h-294v584h294v-584zM2632 1170h-292v292h292v-292zM3216 584 h-584v586h584v-586zM876 292h-292v292h292v-292zM2632 292h-292v292h292v-292zM3510 292h-294v292h294v-292zM2340 0h-1464v292h1464v-292zM3802 0h-292v292h292v-292z" />
<glyph unicode="'" horiz-adv-x="876" d="M584 2632h-292v1464h292v-1464z" />
<glyph unicode="(" horiz-adv-x="1754" d="M1462 4096h-294v292h294v-292zM1168 3510h-292v586h292v-586zM876 2632h-292v878h292v-878zM584 584h-292v2048h292v-2048zM876 -292h-292v876h292v-876zM1168 -876h-292v584h292v-584zM1462 -1170h-294v294h294v-294z" />
<glyph unicode=")" horiz-adv-x="1754" d="M584 4096h-292v292h292v-292zM876 3510h-292v586h292v-586zM1168 2632h-292v878h292v-878zM1462 584h-294v2048h294v-2048zM1168 -292h-292v876h292v-876zM876 -876h-292v584h292v-584zM584 -1170h-292v294h292v-294z" />
<glyph unicode="*" horiz-adv-x="2046" d="M1168 2924h-292v294h-584v292h584v586h292v-586h586v-292h-586v-294zM876 2632h-292v292h292v-292zM1462 2632h-294v292h294v-292zM584 2340h-292v292h292v-292zM1754 2340h-292v292h292v-292z" />
<glyph unicode="+" horiz-adv-x="3802" d="M2046 0h-292v1316h-1462v292h1462v1316h292v-1316h1464v-292h-1464v-1316z" />
<glyph unicode="," horiz-adv-x="1022" d="M730 -292h-292v876h292v-876zM438 -584h-292v292h292v-292z" />
<glyph unicode="-" d="M2632 1462h-2340v292h2340v-292z" />
<glyph unicode="." horiz-adv-x="876" d="M584 0h-292v584h292v-584z" />
<glyph unicode="/" d="M2632 4096h-292v584h292v-584zM2340 3510h-294v586h294v-586zM2046 2924h-292v586h292v-586zM1754 2340h-292v584h292v-584zM1462 1754h-294v586h294v-586zM1168 1170h-292v584h292v-584zM876 584h-292v586h292v-586zM584 0h-292v584h292v-584z" />
<glyph unicode="0" horiz-adv-x="3216" d="M2340 3802h-1464v294h1464v-294zM876 3510h-292v292h292v-292zM2632 3510h-292v292h292v-292zM584 584h-292v2926h292v-2926zM2924 584h-292v2926h292v-2926zM876 292h-292v292h292v-292zM2632 292h-292v292h292v-292zM2340 0h-1464v292h1464v-292z" />
<glyph unicode="1" horiz-adv-x="1462" d="M1170 0h-294v3218h-730v292h730v586h294v-4096z" />
<glyph unicode="2" horiz-adv-x="3216" d="M2340 3802h-1464v294h1464v-294zM876 3510h-292v292h292v-292zM2632 3510h-292v292h292v-292zM584 2924h-292v586h292v-586zM2924 2632h-292v878h292v-878zM2632 2340h-292v292h292v-292zM2340 2048h-294v292h294v-292zM2046 1754h-292v294h292v-294zM1754 1462h-292v292 h292v-292zM1462 1170h-294v292h294v-292zM1168 876h-292v294h292v-294zM876 584h-292v292h292v-292zM2924 0h-2632v584h292v-292h2340v-292z" />
<glyph unicode="3" horiz-adv-x="3216" d="M2340 3802h-1464v294h1464v-294zM876 3510h-292v292h292v-292zM2632 3510h-292v292h292v-292zM584 2924h-292v586h292v-586zM2924 2632h-292v878h292v-878zM2632 2340h-292v292h292v-292zM2340 2048h-878v292h878v-292zM2632 1754h-292v294h292v-294zM2924 584h-292v1170 h292v-1170zM584 584h-292v586h292v-586zM876 292h-292v292h292v-292zM2632 292h-292v292h292v-292zM2340 0h-1464v292h1464v-292z" />
<glyph unicode="4" horiz-adv-x="3070" d="M2632 0h-292v876h-2048v586h292v-292h1756v2632h-586v294h878v-2926h292v-294h-292v-876zM1754 3218h-292v584h292v-584zM1462 2632h-294v586h294v-586zM1168 2048h-292v584h292v-584zM876 1462h-292v586h292v-586z" />
<glyph unicode="5" horiz-adv-x="3216" d="M876 3218h-292v878h2048v-294h-1756v-584zM876 1754h-584v1464h292v-878h292v-586zM2340 2340h-1464v292h1464v-292zM2632 2048h-292v292h292v-292zM2924 584h-292v1464h292v-1464zM584 584h-292v586h292v-586zM876 292h-292v292h292v-292zM2632 292h-292v292h292v-292z M2340 0h-1464v292h1464v-292z" />
<glyph unicode="6" horiz-adv-x="3216" d="M2340 3802h-1464v294h1464v-294zM876 3510h-292v292h292v-292zM2632 3510h-292v292h292v-292zM584 584h-292v2926h292v-1170h292v-292h-292v-1464zM2924 2924h-292v586h292v-586zM2340 2340h-1464v292h1464v-292zM2632 2048h-292v292h292v-292zM2924 584h-292v1464h292 v-1464zM876 292h-292v292h292v-292zM2632 292h-292v292h292v-292zM2340 0h-1464v292h1464v-292z" />
<glyph unicode="7" d="M2778 3510h-292v292h-2340v294h2632v-586zM2486 3218h-292v292h292v-292zM2194 2924h-294v294h294v-294zM1900 2632h-292v292h292v-292zM1608 2048h-292v584h292v-584zM1316 1170h-294v878h294v-878zM1022 0h-292v1170h292v-1170z" />
<glyph unicode="8" horiz-adv-x="3216" d="M2340 3802h-1464v294h1464v-294zM876 3510h-292v292h292v-292zM2632 3510h-292v292h292v-292zM584 2632h-292v878h292v-878zM2924 2632h-292v878h292v-878zM876 2340h-292v292h292v-292zM2632 2340h-292v292h292v-292zM2340 2048h-1464v292h1464v-292zM876 1754h-292v294 h292v-294zM2632 1754h-292v294h292v-294zM584 584h-292v1170h292v-1170zM2924 584h-292v1170h292v-1170zM876 292h-292v292h292v-292zM2632 292h-292v292h292v-292zM2340 0h-1464v292h1464v-292z" />
<glyph unicode="9" horiz-adv-x="3216" d="M2340 3802h-1464v294h1464v-294zM876 3510h-292v292h292v-292zM2632 3510h-292v292h292v-292zM584 2048h-292v1462h292v-1462zM2924 584h-292v1170h-292v294h292v1462h292v-2926zM876 1754h-292v294h292v-294zM2340 1462h-1464v292h1464v-292zM584 584h-292v586h292v-586 zM876 292h-292v292h292v-292zM2632 292h-292v292h292v-292zM2340 0h-1464v292h1464v-292z" />
<glyph unicode=":" horiz-adv-x="876" d="M584 2340h-292v584h292v-584zM584 0h-292v584h292v-584z" />
<glyph unicode=";" horiz-adv-x="1168" d="M876 2340h-292v584h292v-584zM876 -292h-292v876h292v-876zM584 -584h-292v292h292v-292z" />
<glyph unicode="&#x3c;" horiz-adv-x="3508" d="M3216 2632h-584v292h584v-292zM2632 2340h-586v292h586v-292zM2046 2048h-584v292h584v-292zM1462 1754h-586v294h586v-294zM876 1170h-584v584h584v-584zM1462 876h-586v294h586v-294zM2046 584h-584v292h584v-292zM2632 292h-586v292h586v-292zM3216 0h-584v292h584 v-292z" />
<glyph unicode="=" horiz-adv-x="3508" d="M3216 2048h-2924v292h2924v-292zM3216 876h-2924v294h2924v-294z" />
<glyph unicode="&#x3e;" horiz-adv-x="3508" d="M876 2632h-584v292h584v-292zM1462 2340h-586v292h586v-292zM2046 2048h-584v292h584v-292zM2632 1754h-586v294h586v-294zM3216 1170h-584v584h584v-584zM2632 876h-586v294h586v-294zM2046 584h-584v292h584v-292zM1462 292h-586v292h586v-292zM876 0h-584v292h584 v-292z" />
<glyph unicode="?" d="M2046 3802h-1170v294h1170v-294zM876 3510h-292v292h292v-292zM2340 3510h-294v292h294v-292zM584 2924h-292v586h292v-586zM2632 2632h-292v878h292v-878zM2340 2340h-294v292h294v-292zM2046 2048h-292v292h292v-292zM1754 1754h-292v294h292v-294zM1462 1024h-294v730 h294v-730zM1462 0h-294v584h294v-584z" />
<glyph unicode="@" horiz-adv-x="4680" d="M2924 3802h-1170v294h1170v-294zM1754 3510h-586v292h586v-292zM3510 3510h-586v292h586v-292zM1168 3218h-292v292h292v-292zM3802 3218h-292v292h292v-292zM876 2632h-292v586h292v-586zM2632 2924h-878v294h878v-294zM3216 1170h-584v292h292v1170h-292v292h292v294 h292v-2048zM4094 2632h-292v586h292v-586zM1754 2632h-292v292h292v-292zM584 1462h-292v1170h292v-1170zM1462 1462h-294v1170h294v-1170zM4388 1462h-294v1170h294v-1170zM876 876h-292v586h292v-586zM1754 1170h-292v292h292v-292zM4094 1170h-292v292h292v-292z M2632 876h-878v294h878v-294zM3802 876h-586v294h586v-294zM1168 584h-292v292h292v-292zM1754 292h-586v292h586v-292zM3510 292h-586v292h586v-292zM2924 0h-1170v292h1170v-292z" />
<glyph unicode="A" horiz-adv-x="3508" d="M2046 3510h-584v586h584v-586zM1462 2632h-294v878h294v-878zM2340 2632h-294v878h294v-878zM1168 1754h-292v878h292v-878zM2632 1754h-292v878h292v-878zM876 876h-292v878h292v-292h1756v292h292v-878h-292v294h-1756v-294zM584 0h-292v876h292v-876zM3216 0h-292v876 h292v-876z" />
<glyph unicode="B" horiz-adv-x="3508" d="M2632 0h-2340v4096h2048v-294h-1756v-1462h1756v292h292v-584h-2048v-1756h2048v-292zM2632 3510h-292v292h292v-292zM2924 2632h-292v878h292v-878zM2924 1754h-292v294h292v-294zM3216 584h-292v1170h292v-1170zM2924 292h-292v292h292v-292z" />
<glyph unicode="C" horiz-adv-x="3802" d="M2632 3802h-1464v294h1464v-294zM1168 3510h-292v292h292v-292zM2924 3510h-292v292h292v-292zM876 3218h-292v292h292v-292zM3216 3218h-292v292h292v-292zM584 876h-292v2342h292v-2342zM3510 2632h-294v586h294v-586zM3510 876h-294v586h294v-586zM876 584h-292v292 h292v-292zM3216 584h-292v292h292v-292zM1168 292h-292v292h292v-292zM2924 292h-292v292h292v-292zM2632 0h-1464v292h1464v-292z" />
<glyph unicode="D" horiz-adv-x="3508" d="M2340 0h-2048v4096h2048v-294h-1756v-3510h1756v-292zM2632 3510h-292v292h292v-292zM2924 3218h-292v292h292v-292zM3216 876h-292v2342h292v-2342zM2924 584h-292v292h292v-292zM2632 292h-292v292h292v-292z" />
<glyph unicode="E" horiz-adv-x="3216" d="M2924 0h-2632v4096h2632v-294h-2340v-1462h2048v-292h-2048v-1756h2340v-292z" />
<glyph unicode="F" horiz-adv-x="3216" d="M584 0h-292v4096h2632v-294h-2340v-1462h2048v-292h-2048v-2048z" />
<glyph unicode="G" horiz-adv-x="3802" d="M2632 3802h-1464v294h1464v-294zM1168 3510h-292v292h292v-292zM2924 3510h-292v292h292v-292zM876 3218h-292v292h292v-292zM3216 3218h-292v292h292v-292zM584 876h-292v2342h292v-2342zM3510 2632h-294v586h294v-586zM3510 0h-294v584h-292v292h292v878h-1170v294 h1464v-2048zM876 584h-292v292h292v-292zM1168 292h-292v292h292v-292zM2924 292h-292v292h292v-292zM2632 0h-1464v292h1464v-292z" />
<glyph unicode="H" horiz-adv-x="3508" d="M584 0h-292v4096h292v-1756h2340v1756h292v-4096h-292v2048h-2340v-2048z" />
<glyph unicode="I" horiz-adv-x="876" d="M584 0h-292v4096h292v-4096z" />
<glyph unicode="J" horiz-adv-x="2486" d="M2194 584h-294v3512h294v-3512zM438 584h-292v586h292v-586zM730 292h-292v292h292v-292zM1900 292h-292v292h292v-292zM1608 0h-878v292h878v-292z" />
<glyph unicode="K" horiz-adv-x="3508" d="M584 0h-292v4096h292v-2048h292v-294h-292v-1754zM2924 3802h-292v294h292v-294zM2632 3510h-292v292h292v-292zM2340 3218h-294v292h294v-292zM2046 2924h-292v294h292v-294zM1754 2632h-292v292h292v-292zM1462 2340h-294v292h294v-292zM1168 2048h-292v292h292v-292z M1462 1754h-294v294h294v-294zM1754 1462h-292v292h292v-292zM2046 1170h-292v292h292v-292zM2340 876h-294v294h294v-294zM2632 584h-292v292h292v-292zM2924 292h-292v292h292v-292zM3216 0h-292v292h292v-292z" />
<glyph unicode="L" horiz-adv-x="2778" d="M2632 0h-2340v4096h292v-3804h2048v-292z" />
<glyph unicode="M" horiz-adv-x="4094" d="M584 0h-292v4096h584v-878h-292v-3218zM3802 0h-292v3218h-294v878h586v-4096zM1168 2340h-292v878h292v-878zM3216 2340h-292v878h292v-878zM1462 1462h-294v878h294v-878zM2924 1462h-292v878h292v-878zM1754 584h-292v878h292v-878zM2632 584h-292v878h292v-878z M2340 0h-586v584h586v-584z" />
<glyph unicode="N" horiz-adv-x="3216" d="M584 0h-292v4096h584v-586h-292v-3510zM2924 0h-584v584h292v3512h292v-4096zM1168 2924h-292v586h292v-586zM1462 2340h-294v584h294v-584zM1754 1754h-292v586h292v-586zM2046 1170h-292v584h292v-584zM2340 584h-294v586h294v-586z" />
<glyph unicode="O" horiz-adv-x="3802" d="M2632 3802h-1464v294h1464v-294zM1168 3510h-292v292h292v-292zM2924 3510h-292v292h292v-292zM876 3218h-292v292h292v-292zM3216 3218h-292v292h292v-292zM584 876h-292v2342h292v-2342zM3510 876h-294v2342h294v-2342zM876 584h-292v292h292v-292zM3216 584h-292v292 h292v-292zM1168 292h-292v292h292v-292zM2924 292h-292v292h292v-292zM2632 0h-1464v292h1464v-292z" />
<glyph unicode="P" horiz-adv-x="3508" d="M584 0h-292v4096h2340v-294h-2048v-1754h2048v-294h-2048v-1754zM2924 3510h-292v292h292v-292zM3216 2340h-292v1170h292v-1170zM2924 2048h-292v292h292v-292z" />
<glyph unicode="Q" horiz-adv-x="3802" d="M2632 3802h-1464v294h1464v-294zM1168 3510h-292v292h292v-292zM2924 3510h-292v292h292v-292zM876 3218h-292v292h292v-292zM3216 3218h-292v292h292v-292zM584 876h-292v2342h292v-2342zM3510 876h-294v2342h294v-2342zM2340 876h-294v294h294v-294zM876 584h-292v292 h292v-292zM2632 584h-292v292h292v-292zM3216 584h-292v292h292v-292zM1168 292h-292v292h292v-292zM2924 292h-292v292h292v-292zM2632 0h-1464v292h1464v-292zM3216 0h-292v292h292v-292zM3510 -292h-294v292h294v-292z" />
<glyph unicode="R" horiz-adv-x="3656" d="M584 0h-292v4096h2340v-294h-2048v-1754h2048v-294h-2048v-1754zM2924 3510h-292v292h292v-292zM3216 2340h-292v1170h292v-1170zM2924 2048h-292v292h292v-292zM2924 1462h-292v292h292v-292zM3216 292h-292v1170h292v-1170zM3510 0h-294v292h294v-292z" />
<glyph unicode="S" horiz-adv-x="3508" d="M2632 3802h-1756v294h1756v-294zM876 3510h-292v292h292v-292zM2924 3510h-292v292h292v-292zM584 2632h-292v878h292v-878zM3216 2924h-292v586h292v-586zM1168 2340h-584v292h584v-292zM2340 2048h-1172v292h1172v-292zM2924 1754h-584v294h584v-294zM3216 584h-292 v1170h292v-1170zM584 584h-292v586h292v-586zM876 292h-292v292h292v-292zM2924 292h-292v292h292v-292zM2632 0h-1756v292h1756v-292z" />
<glyph unicode="T" d="M1608 0h-292v3802h-1170v294h2632v-294h-1170v-3802z" />
<glyph unicode="U" horiz-adv-x="3216" d="M584 584h-292v3512h292v-3512zM2924 584h-292v3512h292v-3512zM876 292h-292v292h292v-292zM2632 292h-292v292h292v-292zM2340 0h-1464v292h1464v-292z" />
<glyph unicode="V" horiz-adv-x="3216" d="M438 3218h-292v878h292v-878zM3070 3218h-292v878h292v-878zM730 2340h-292v878h292v-878zM2778 2340h-292v878h292v-878zM1022 1462h-292v878h292v-878zM2486 1462h-292v878h292v-878zM1316 584h-294v878h294v-878zM2194 584h-294v878h294v-878zM1900 0h-584v584h584 v-584z" />
<glyph unicode="W" horiz-adv-x="4680" d="M438 2924h-292v1172h292v-1172zM2486 2924h-292v1172h292v-1172zM4534 2924h-292v1172h292v-1172zM730 1754h-292v1170h292v-1170zM2194 1754h-294v1170h294v-1170zM2778 1754h-292v1170h292v-1170zM4242 1754h-294v1170h294v-1170zM1022 584h-292v1170h292v-1170z M1900 584h-292v1170h292v-1170zM3070 584h-292v1170h292v-1170zM3948 584h-292v1170h292v-1170zM1608 0h-586v584h586v-584zM3656 0h-586v584h586v-584z" />
<glyph unicode="X" horiz-adv-x="3508" d="M584 3218h-292v878h292v-878zM3216 3218h-292v878h292v-878zM876 2924h-292v294h292v-294zM2924 2924h-292v294h292v-294zM1168 2632h-292v292h292v-292zM2632 2632h-292v292h292v-292zM1462 2340h-294v292h294v-292zM2340 2340h-294v292h294v-292zM2046 1754h-584v586 h584v-586zM1462 1462h-294v292h294v-292zM2340 1462h-294v292h294v-292zM1168 1170h-292v292h292v-292zM2632 1170h-292v292h292v-292zM876 876h-292v294h292v-294zM2924 876h-292v294h292v-294zM584 0h-292v876h292v-876zM3216 0h-292v876h292v-876z" />
<glyph unicode="Y" d="M438 3510h-292v586h292v-586zM2778 3510h-292v586h292v-586zM730 2924h-292v586h292v-586zM2486 2924h-292v586h292v-586zM1022 2340h-292v584h292v-584zM2194 2340h-294v584h294v-584zM1316 1754h-294v586h294v-586zM1900 1754h-292v586h292v-586zM1608 0h-292v1754h292 v-1754z" />
<glyph unicode="Z" horiz-adv-x="3508" d="M3216 3218h-292v584h-2632v294h2924v-878zM2924 2924h-292v294h292v-294zM2632 2632h-292v292h292v-292zM2340 2340h-294v292h294v-292zM2046 2048h-292v292h292v-292zM1754 1754h-292v294h292v-294zM1462 1462h-294v292h294v-292zM1168 1170h-292v292h292v-292zM876 876 h-292v294h292v-294zM3216 0h-2924v876h292v-584h2632v-292z" />
<glyph unicode="[" horiz-adv-x="1460" d="M1168 -1170h-876v5266h876v-294h-584v-4678h584v-294z" />
<glyph unicode="\" d="M584 4096h-292v584h292v-584zM876 3510h-292v586h292v-586zM1168 2924h-292v586h292v-586zM1462 2340h-294v584h294v-584zM1754 1754h-292v586h292v-586zM2046 1170h-292v584h292v-584zM2340 584h-294v586h294v-586zM2632 0h-292v584h292v-584z" />
<glyph unicode="]" horiz-adv-x="1460" d="M1168 -1170h-876v294h584v4678h-584v294h876v-5266z" />
<glyph unicode="^" horiz-adv-x="2338" d="M1462 3802h-586v294h586v-294zM876 3510h-292v292h292v-292zM1754 3510h-292v292h292v-292zM584 3218h-292v292h292v-292zM2046 3218h-292v292h292v-292z" />
<glyph unicode="_" horiz-adv-x="3508" d="M3216 -584h-2924v292h2924v-292z" />
<glyph unicode="`" horiz-adv-x="1460" d="M584 3802h-292v294h292v-294zM876 3510h-292v292h292v-292zM1168 3218h-292v292h292v-292z" />
<glyph unicode="a" horiz-adv-x="3070" d="M2046 2632h-1170v292h1170v-292zM876 2340h-292v292h292v-292zM2340 2340h-294v292h294v-292zM584 2048h-292v292h292v-292zM2632 292h-292v292h-294v292h294v878h-294v294h294v292h292v-2048zM2046 1462h-1170v292h1170v-292zM876 1170h-292v292h292v-292zM584 584h-292 v586h292v-586zM876 292h-292v292h292v-292zM2046 292h-292v292h292v-292zM1754 0h-878v292h878v-292zM2924 0h-292v292h292v-292z" />
<glyph unicode="b" d="M584 0h-292v4096h292v-1756h292v-292h-292v-1172h292v-292h-292v-584zM2046 2632h-878v292h878v-292zM1168 2340h-292v292h292v-292zM2340 2340h-294v292h294v-292zM2632 584h-292v1756h292v-1756zM1168 292h-292v292h292v-292zM2340 292h-294v292h294v-292zM2046 0h-878 v292h878v-292z" />
<glyph unicode="c" d="M2046 2632h-1170v292h1170v-292zM876 2340h-292v292h292v-292zM2340 2340h-294v292h294v-292zM584 584h-292v1756h292v-1756zM2632 2048h-292v292h292v-292zM2632 584h-292v292h292v-292zM876 292h-292v292h292v-292zM2340 292h-294v292h294v-292zM2046 0h-1170v292h1170 v-292z" />
<glyph unicode="d" d="M2632 0h-292v584h-294v292h294v1172h-294v292h294v1756h292v-4096zM1754 2632h-878v292h878v-292zM876 2340h-292v292h292v-292zM2046 2340h-292v292h292v-292zM584 584h-292v1756h292v-1756zM876 292h-292v292h292v-292zM2046 292h-292v292h292v-292zM1754 0h-878v292 h878v-292z" />
<glyph unicode="e" d="M2046 2632h-1170v292h1170v-292zM876 2340h-292v292h292v-292zM2340 2340h-294v292h294v-292zM584 584h-292v1756h292v-586h1756v586h292v-878h-2048v-878zM2632 584h-292v440h292v-440zM876 292h-292v292h292v-292zM2340 292h-294v292h294v-292zM2046 0h-1170v292h1170 v-292z" />
<glyph unicode="f" horiz-adv-x="1754" d="M1608 3802h-732v294h732v-294zM876 0h-292v2632h-438v292h438v878h292v-878h732v-292h-732v-2632z" />
<glyph unicode="g" d="M1754 2632h-878v292h878v-292zM2632 -584h-292v1168h-294v292h294v1172h-294v292h294v584h292v-3508zM876 2340h-292v292h292v-292zM2046 2340h-292v292h292v-292zM584 584h-292v1756h292v-1756zM876 292h-292v292h292v-292zM2046 292h-292v292h292v-292zM1754 0h-878 v292h878v-292zM584 -584h-292v292h292v-292zM876 -876h-292v292h292v-292zM2340 -876h-294v292h294v-292zM2046 -1170h-1170v294h1170v-294z" />
<glyph unicode="h" d="M584 0h-292v4096h292v-1756h292v-292h-292v-2048zM2046 2632h-878v292h878v-292zM1168 2340h-292v292h292v-292zM2340 2340h-294v292h294v-292zM2632 0h-292v2340h292v-2340z" />
<glyph unicode="i" horiz-adv-x="876" d="M584 3364h-292v584h292v-584zM584 0h-292v2924h292v-2924z" />
<glyph unicode="j" horiz-adv-x="876" d="M584 3364h-292v584h292v-584zM584 -876h-292v3800h292v-3800zM292 -1170h-584v294h584v-294z" />
<glyph unicode="k" horiz-adv-x="2778" d="M584 0h-292v4096h292v-2634h292v-292h-292v-1170zM2340 2632h-294v292h294v-292zM2046 2340h-292v292h292v-292zM1754 2048h-292v292h292v-292zM1462 1754h-294v294h294v-294zM1168 1462h-292v292h292v-292zM1462 1170h-294v292h294v-292zM1754 876h-292v294h292v-294z M2046 584h-292v292h292v-292zM2340 292h-294v292h294v-292zM2632 0h-292v292h292v-292z" />
<glyph unicode="l" horiz-adv-x="876" d="M584 0h-292v4096h292v-4096z" />
<glyph unicode="m" horiz-adv-x="4386" d="M584 0h-292v2924h292v-584h292v-292h-292v-2048zM1754 2632h-586v292h586v-292zM3510 2632h-878v292h878v-292zM1168 2340h-292v292h292v-292zM2046 2340h-292v292h292v-292zM2632 2340h-292v292h292v-292zM3802 2340h-292v292h292v-292zM2340 0h-294v2340h294v-2340z M4094 0h-292v2340h292v-2340z" />
<glyph unicode="n" d="M584 0h-292v2924h292v-584h292v-292h-292v-2048zM2046 2632h-878v292h878v-292zM1168 2340h-292v292h292v-292zM2340 2340h-294v292h294v-292zM2632 0h-292v2340h292v-2340z" />
<glyph unicode="o" d="M2046 2632h-1170v292h1170v-292zM876 2340h-292v292h292v-292zM2340 2340h-294v292h294v-292zM584 584h-292v1756h292v-1756zM2632 584h-292v1756h292v-1756zM876 292h-292v292h292v-292zM2340 292h-294v292h294v-292zM2046 0h-1170v292h1170v-292z" />
<glyph unicode="p" d="M584 -1170h-292v4094h292v-584h292v-292h-292v-1172h292v-292h-292v-1754zM2046 2632h-878v292h878v-292zM1168 2340h-292v292h292v-292zM2340 2340h-294v292h294v-292zM2632 584h-292v1756h292v-1756zM1168 292h-292v292h292v-292zM2340 292h-294v292h294v-292zM2046 0 h-878v292h878v-292z" />
<glyph unicode="q" d="M1754 2632h-878v292h878v-292zM2632 -1170h-292v1754h-294v292h294v1172h-294v292h294v584h292v-4094zM876 2340h-292v292h292v-292zM2046 2340h-292v292h292v-292zM584 584h-292v1756h292v-1756zM876 292h-292v292h292v-292zM2046 292h-292v292h292v-292zM1754 0h-878 v292h878v-292z" />
<glyph unicode="r" horiz-adv-x="1900" d="M584 0h-292v2924h292v-584h292v-292h-292v-2048zM1754 2632h-586v292h586v-292zM1168 2340h-292v292h292v-292z" />
<glyph unicode="s" d="M876 2632v292h1170v-292h-1170zM876 2340h-292v292h292v-292zM2046 2340v292h294v-292h-294zM584 1754h-292v586h292v-586zM2632 2340v-292h-292v292h292zM876 1316v146h-292v292h292v-146h1170v-146h294v-292h-294v146h-1170zM2632 1170v-586h-292v586h292zM292 584v292 h292v-292h-292zM584 292v292h292v-292h-292zM2340 292h-294v292h294v-292zM2046 0h-1170v292h1170v-292z" />
<glyph unicode="t" horiz-adv-x="1754" d="M876 292h-292v2340h-438v292h438v878h292v-878h732v-292h-732v-2340zM1608 0h-732v292h732v-292z" />
<glyph unicode="u" d="M584 584h-292v2340h292v-2340zM2632 0h-292v584h-294v292h294v2048h292v-2924zM876 292h-292v292h292v-292zM2046 292h-292v292h292v-292zM1754 0h-878v292h878v-292z" />
<glyph unicode="v" d="M438 2340h-292v584h292v-584zM2778 2340h-292v584h292v-584zM730 1754h-292v586h292v-586zM2486 1754h-292v586h292v-586zM1022 1170h-292v584h292v-584zM2194 1170h-294v584h294v-584zM1316 584h-294v586h294v-586zM1900 584h-292v586h292v-586zM1608 0h-292v584h292 v-584z" />
<glyph unicode="w" horiz-adv-x="4094" d="M438 2340h-292v584h292v-584zM2194 2340h-294v584h294v-584zM3948 2340h-292v584h292v-584zM730 1462h-292v878h292v-878zM1900 1462h-292v878h292v-878zM2486 1462h-292v878h292v-878zM3656 1462h-292v878h292v-878zM1022 584h-292v878h292v-878zM1608 584h-292v878h292 v-878zM2778 584h-292v878h292v-878zM3364 584h-294v878h294v-878zM1316 0h-294v584h294v-584zM3070 0h-292v584h292v-584z" />
<glyph unicode="x" d="M438 2632h-292v292h292v-292zM2778 2632h-292v292h292v-292zM730 2340h-292v292h292v-292zM2486 2340h-292v292h292v-292zM1022 2048h-292v292h292v-292zM2194 2048h-294v292h294v-292zM1316 1754h-294v294h294v-294zM1900 1754h-292v294h292v-294zM1608 1170h-292v584 h292v-584zM1316 876h-294v294h294v-294zM1900 876h-292v294h292v-294zM1022 584h-292v292h292v-292zM2194 584h-294v292h294v-292zM730 292h-292v292h292v-292zM2486 292h-292v292h292v-292zM438 0h-292v292h292v-292zM2778 0h-292v292h292v-292z" />
<glyph unicode="y" d="M438 2340h-292v584h292v-584zM2778 2340h-292v584h292v-584zM730 1754h-292v586h292v-586zM2486 1754h-292v586h292v-586zM1022 1170h-292v584h292v-584zM2194 1170h-294v584h294v-584zM1316 584h-294v586h294v-586zM1900 584h-292v586h292v-586zM1608 0h-292v584h292 v-584zM1316 -584h-294v584h294v-584zM1022 -876h-292v292h292v-292zM730 -1170h-584v294h584v-294z" />
<glyph unicode="z" d="M2632 2340h-292v292h-2048v292h2340v-584zM2340 2048h-294v292h294v-292zM2046 1754h-292v294h292v-294zM1754 1462h-292v292h292v-292zM1462 1170h-294v292h294v-292zM1168 876h-292v294h292v-294zM876 584h-292v292h292v-292zM2632 0h-2340v584h292v-292h2048v-292z " />
<glyph unicode="{" horiz-adv-x="2046" d="M1754 3802h-586v294h586v-294zM1168 1608h-292v2194h292v-2194zM876 1316h-584v292h584v-292zM1168 -876h-292v2192h292v-2192zM1754 -1170h-586v294h586v-294z" />
<glyph unicode="|" horiz-adv-x="876" d="M584 -292h-292v5264h292v-5264z" />
<glyph unicode="}" horiz-adv-x="2046" d="M876 3802h-584v294h584v-294zM1168 1608h-292v2194h292v-2194zM1754 1316h-586v292h586v-292zM1168 -876h-292v2192h292v-2192zM876 -1170h-584v294h584v-294z" />
<glyph unicode="~" horiz-adv-x="3216" d="M1462 1754h-878v294h878v-294zM584 1462h-292v292h292v-292zM1754 1462h-292v292h292v-292zM2924 1462h-292v292h292v-292zM2632 1170h-878v292h878v-292z" />
<glyph unicode="&#xa1;" horiz-adv-x="876" d="M584 2340h-292v584h292v-584zM584 -1170h-292v3070h292v-3070z" />
<glyph unicode="&#xa2;" d="M1608 -584h-292v584h-440v292h440v2340h-440v292h440v586h292v-586h438v-292h-438v-2340h438v-292h-438v-584zM876 2340h-292v292h292v-292zM2340 2340h-294v292h294v-292zM584 584h-292v1756h292v-1756zM2632 2048h-292v292h292v-292zM2632 584h-292v292h292v-292z M876 292h-292v292h292v-292zM2340 292h-294v292h294v-292z" />
<glyph unicode="&#xa3;" horiz-adv-x="3362" d="M2340 3802h-1172v294h1172v-294zM1168 3510h-292v292h292v-292zM2632 3510h-292v292h292v-292zM876 2632h-292v878h292v-878zM2924 2924h-292v586h292v-586zM1168 2340h-292v292h292v-292zM1462 1170h-294v584h-876v294h876v292h294v-292h878v-294h-878v-584zM1168 584 h-292v586h292v-586zM2924 0h-2632v584h584v-292h2048v-292zM3216 292h-292v292h292v-292z" />
<glyph unicode="&#xa4;" horiz-adv-x="2632" d="M584 2632h-292v292h292v-292zM2340 2632h-294v292h294v-292zM2046 1170h-1462v1462h1462v-1462zM876 1462h878v878h-878v-878zM584 876h-292v294h292v-294zM2340 876h-294v294h294v-294z" />
<glyph unicode="&#xa5;" horiz-adv-x="3216" d="M584 3510h-292v586h292v-586zM2924 3510h-292v586h292v-586zM876 2924h-292v586h292v-586zM2632 2924h-292v586h292v-586zM1168 2340h-292v584h292v-584zM2340 2340h-294v584h294v-584zM1754 0h-292v876h-878v294h878v584h-878v294h584v292h294v-292h292v292h292v-292 h586v-294h-878v-584h878v-294h-878v-876z" />
<glyph unicode="&#xa6;" horiz-adv-x="876" d="M584 2924h-292v2048h292v-2048zM584 -292h-292v2046h292v-2046z" />
<glyph unicode="&#xa7;" horiz-adv-x="3802" d="M2632 3802h-1464v294h1464v-294zM1168 3510h-292v292h292v-292zM2924 3510h-292v292h292v-292zM876 2632h-292v878h292v-878zM3216 2924h-292v586h292v-586zM584 1754h-292v878h292v-878zM1462 2340h-586v292h586v-292zM2632 2048h-1170v292h1170v-292zM3216 1754h-584 v294h584v-294zM1168 1462h-584v292h584v-292zM3510 876h-294v878h294v-878zM2340 1170h-1172v292h1172v-292zM2924 876h-584v294h584v-294zM3216 -292h-292v1168h292v-1168zM876 -292h-292v584h292v-584zM1168 -584h-292v292h292v-292zM2924 -584h-292v292h292v-292z M2632 -876h-1464v292h1464v-292z" />
<glyph unicode="&#xa8;" horiz-adv-x="1754" d="M584 3364h-292v584h292v-584zM1462 3364h-294v584h294v-584z" />
<glyph unicode="&#xa9;" horiz-adv-x="4680" d="M2924 3802h-1170v294h1170v-294zM1754 3510h-586v292h586v-292zM3510 3510h-586v292h586v-292zM1168 3218h-292v292h292v-292zM3802 3218h-292v292h292v-292zM876 2632h-292v586h292v-586zM2924 2924h-1170v294h1170v-294zM4094 2632h-292v586h292v-586zM1754 2632h-292 v292h292v-292zM3216 2632h-292v292h292v-292zM584 1462h-292v1170h292v-1170zM1462 1462h-294v1170h294v-1170zM3510 2340h-294v292h294v-292zM4388 1462h-294v1170h294v-1170zM3510 1462h-294v292h294v-292zM876 876h-292v586h292v-586zM1754 1170h-292v292h292v-292z M3216 1170h-292v292h292v-292zM4094 876h-292v586h292v-586zM2924 876h-1170v294h1170v-294zM1168 584h-292v292h292v-292zM3802 584h-292v292h292v-292zM1754 292h-586v292h586v-292zM3510 292h-586v292h586v-292zM2924 0h-1170v292h1170v-292z" />
<glyph unicode="&#xaa;" horiz-adv-x="2338" d="M1462 3802h-878v294h878v-294zM584 3510h-292v292h292v-292zM1754 2340h-292v878h-294v292h294v292h292v-1462zM1168 2924h-584v294h584v-294zM584 2340h-292v584h292v-584zM1462 2048h-878v292h878v-292zM2046 2048h-292v292h292v-292z" />
<glyph unicode="&#xab;" horiz-adv-x="2778" d="M1462 2340h-294v292h294v-292zM2486 2340h-294v292h294v-292zM1168 2048h-292v292h292v-292zM2192 2048h-292v292h292v-292zM876 1754h-292v294h292v-294zM1900 1754h-292v294h292v-294zM584 1170h-292v584h292v-584zM1608 1170h-292v584h292v-584zM876 876h-292v294h292 v-294zM1900 876h-292v294h292v-294zM1168 584h-292v292h292v-292zM2192 584h-292v292h292v-292zM1462 292h-294v292h294v-292zM2486 292h-294v292h294v-292z" />
<glyph unicode="&#xac;" horiz-adv-x="3508" d="M3216 876h-292v878h-2632v294h2924v-1172z" />
<glyph unicode="&#xad;" d="M2632 1462h-2340v292h2340v-292z" />
<glyph unicode="&#xae;" horiz-adv-x="4680" d="M2924 3802h-1170v294h1170v-294zM1754 3510h-586v292h586v-292zM3510 3510h-586v292h586v-292zM1168 3218h-292v292h292v-292zM3802 3218h-292v292h292v-292zM876 2632h-292v586h292v-586zM1754 876h-292v2342h1462v-294h-1170v-876h1170v-294h-292v-292h-292v292h-586 v-878zM4094 2632h-292v586h292v-586zM3216 2048h-292v876h292v-876zM584 1462h-292v1170h292v-1170zM4388 1462h-294v1170h294v-1170zM876 876h-292v586h292v-586zM2924 1170h-292v292h292v-292zM4094 876h-292v586h292v-586zM3216 876h-292v294h292v-294zM1168 584h-292 v292h292v-292zM3802 584h-292v292h292v-292zM1754 292h-586v292h586v-292zM3510 292h-586v292h586v-292zM2924 0h-1170v292h1170v-292z" />
<glyph unicode="&#xaf;" horiz-adv-x="2338" d="M2046 3364h-1754v292h1754v-292z" />
<glyph unicode="&#xb0;" horiz-adv-x="2046" d="M1462 3802h-878v294h878v-294zM584 2924h-292v878h292v-878zM1754 2924h-292v878h292v-878zM1462 2632h-878v292h878v-292z" />
<glyph unicode="&#xb1;" horiz-adv-x="3802" d="M2046 876h-292v878h-1462v294h1462v876h292v-876h1464v-294h-1464v-878zM3510 292h-3218v292h3218v-292z" />
<glyph unicode="&#xb2;" horiz-adv-x="1754" d="M1168 3802h-584v294h584v-294zM584 3510h-292v292h292v-292zM1462 3218h-294v584h294v-584zM1168 2924h-292v294h292v-294zM876 2632h-292v292h292v-292zM1462 2048h-1170v584h292v-292h878v-292z" />
<glyph unicode="&#xb3;" horiz-adv-x="1754" d="M1168 3802h-584v294h584v-294zM584 3510h-292v292h292v-292zM1462 3218h-294v584h294v-584zM1168 2924h-584v294h584v-294zM1462 2340h-294v584h294v-584zM584 2340h-292v292h292v-292zM1168 2048h-584v292h584v-292z" />
<glyph unicode="&#xb4;" horiz-adv-x="1460" d="M1168 3802h-292v294h292v-294zM876 3510h-292v292h292v-292zM584 3218h-292v292h292v-292z" />
<glyph unicode="&#xb5;" d="M584 -1170h-292v4094h292v-2340h292v-292h-292v-1462zM2632 0h-292v584h-294v292h294v2048h292v-2924zM2046 292h-292v292h292v-292zM1754 0h-878v292h878v-292z" />
<glyph unicode="&#xb6;" d="M1754 -876h-292v2924h-586v292h-292v292h-292v878h292v292h292v294h1756v-4972h-292v4678h-586v-4678z" />
<glyph unicode="&#xb7;" horiz-adv-x="1168" d="M876 1754h-584v586h584v-586z" />
<glyph unicode="&#xb8;" horiz-adv-x="1900" d="M1316 -584h-878v292h292v292h292v-292h294v-292zM1608 -876h-292v292h292v-292zM1316 -1170h-1024v294h1024v-294z" />
<glyph unicode="&#xb9;" horiz-adv-x="1168" d="M876 2048h-292v1462h-292v292h292v294h292v-2048z" />
<glyph unicode="&#xba;" horiz-adv-x="2046" d="M1462 3802h-878v294h878v-294zM584 2340h-292v1462h292v-1462zM1754 2340h-292v1462h292v-1462zM1462 2048h-878v292h878v-292z" />
<glyph unicode="&#xbb;" horiz-adv-x="2778" d="M584 2340h-292v292h292v-292zM1608 2340h-292v292h292v-292zM876 2048h-292v292h292v-292zM1900 2048h-292v292h292v-292zM1168 1754h-292v294h292v-294zM2192 1754h-292v294h292v-294zM1462 1170h-294v584h294v-584zM2486 1170h-294v584h294v-584zM1168 876h-292v294 h292v-294zM2192 876h-292v294h292v-294zM876 584h-292v292h292v-292zM1900 584h-292v292h292v-292zM584 292h-292v292h292v-292zM1608 292h-292v292h292v-292z" />
<glyph unicode="&#xbc;" horiz-adv-x="3508" d="M876 2048h-292v1462h-292v292h292v294h292v-2048zM2632 3510h-292v586h292v-586zM2340 2924h-294v586h294v-586zM2046 2340h-292v584h292v-584zM1754 1754h-292v586h292v-586zM2924 0h-292v584h-878v586h292v-294h586v878h-292v294h584v-1172h292v-292h-292v-584z M1462 1170h-294v584h294v-584zM2340 1170h-294v584h294v-584zM1168 584h-292v586h292v-586zM876 0h-292v584h292v-584z" />
<glyph unicode="&#xbd;" horiz-adv-x="3508" d="M876 2048h-292v1462h-292v292h292v294h292v-2048zM2632 3510h-292v586h292v-586zM2340 2924h-294v586h294v-586zM2046 2340h-292v584h292v-584zM1754 1754h-292v586h292v-586zM2924 1754h-584v294h584v-294zM1462 1170h-294v584h294v-584zM2340 1462h-294v292h294v-292z M3216 1170h-292v584h292v-584zM1168 584h-292v586h292v-586zM2924 876h-292v294h292v-294zM2632 584h-292v292h292v-292zM876 0h-292v584h292v-584zM3216 0h-1170v584h294v-292h876v-292z" />
<glyph unicode="&#xbe;" horiz-adv-x="3802" d="M1168 3802h-584v294h584v-294zM2924 3510h-292v586h292v-586zM584 3510h-292v292h292v-292zM1462 3218h-294v584h294v-584zM2632 2924h-292v586h292v-586zM1168 2924h-584v294h584v-294zM1462 2340h-294v584h294v-584zM2340 2340h-294v584h294v-584zM584 2340h-292v292 h292v-292zM1168 2048h-584v292h584v-292zM2046 1754h-292v586h292v-586zM3216 0h-292v584h-878v586h294v-294h584v878h-292v294h584v-1172h294v-292h-294v-584zM1754 1170h-292v584h292v-584zM2632 1170h-292v584h292v-584zM1462 584h-294v586h294v-586zM1168 0h-292v584 h292v-584z" />
<glyph unicode="&#xbf;" d="M1754 2340h-292v584h292v-584zM1754 1170h-292v730h292v-730zM1462 876h-294v294h294v-294zM1168 584h-292v292h292v-292zM876 292h-292v292h292v-292zM584 -584h-292v876h292v-876zM2632 -584h-292v584h292v-584zM876 -876h-292v292h292v-292zM2340 -876h-294v292h294 v-292zM2046 -1170h-1170v294h1170v-294z" />
<glyph unicode="&#xc0;" horiz-adv-x="3508" d="M1462 4972h-294v294h294v-294zM1754 4680h-292v292h292v-292zM2046 4388h-292v292h292v-292zM2046 3510h-584v586h584v-586zM1462 2632h-294v878h294v-878zM2340 2632h-294v878h294v-878zM1168 1754h-292v878h292v-878zM2632 1754h-292v878h292v-878zM876 876h-292v878 h292v-292h1756v292h292v-878h-292v294h-1756v-294zM584 0h-292v876h292v-876zM3216 0h-292v876h292v-876z" />
<glyph unicode="&#xc1;" horiz-adv-x="3508" d="M2340 4972h-294v294h294v-294zM2046 4680h-292v292h292v-292zM1754 4388h-292v292h292v-292zM2046 3510h-584v586h584v-586zM1462 2632h-294v878h294v-878zM2340 2632h-294v878h294v-878zM1168 1754h-292v878h292v-878zM2632 1754h-292v878h292v-878zM876 876h-292v878 h292v-292h1756v292h292v-878h-292v294h-1756v-294zM584 0h-292v876h292v-876zM3216 0h-292v876h292v-876z" />
<glyph unicode="&#xc2;" horiz-adv-x="3508" d="M2046 4972h-584v294h584v-294zM1462 4680h-294v292h294v-292zM2340 4680h-294v292h294v-292zM1168 4388h-292v292h292v-292zM2632 4388h-292v292h292v-292zM2046 3510h-584v586h584v-586zM1462 2632h-294v878h294v-878zM2340 2632h-294v878h294v-878zM1168 1754h-292v878 h292v-878zM2632 1754h-292v878h292v-878zM876 876h-292v878h292v-292h1756v292h292v-878h-292v294h-1756v-294zM584 0h-292v876h292v-876zM3216 0h-292v876h292v-876z" />
<glyph unicode="&#xc3;" horiz-adv-x="3508" d="M1754 4826h-586v294h586v-294zM2632 4826h-292v294h292v-294zM1168 4534h-292v292h292v-292zM2340 4534h-586v292h586v-292zM2046 3510h-584v586h584v-586zM1462 2632h-294v878h294v-878zM2340 2632h-294v878h294v-878zM1168 1754h-292v878h292v-878zM2632 1754h-292v878 h292v-878zM876 876h-292v878h292v-292h1756v292h292v-878h-292v294h-1756v-294zM584 0h-292v876h292v-876zM3216 0h-292v876h292v-876z" />
<glyph unicode="&#xc4;" horiz-adv-x="3508" d="M1462 4534h-294v586h294v-586zM2340 4534h-294v586h294v-586zM2046 3510h-584v586h584v-586zM1462 2632h-294v878h294v-878zM2340 2632h-294v878h294v-878zM1168 1754h-292v878h292v-878zM2632 1754h-292v878h292v-878zM876 876h-292v878h292v-292h1756v292h292v-878 h-292v294h-1756v-294zM584 0h-292v876h292v-876zM3216 0h-292v876h292v-876z" />
<glyph unicode="&#xc5;" horiz-adv-x="3508" d="M2046 5266h-584v292h584v-292zM1462 4680h-294v586h294v-586zM2340 4680h-294v586h294v-586zM2046 4388h-584v292h584v-292zM2046 3510h-584v586h584v-586zM1462 2632h-294v878h294v-878zM2340 2632h-294v878h294v-878zM1168 1754h-292v878h292v-878zM2632 1754h-292v878 h292v-878zM876 876h-292v878h292v-292h1756v292h292v-878h-292v294h-1756v-294zM584 0h-292v876h292v-876zM3216 0h-292v876h292v-876z" />
<glyph unicode="&#xc6;" horiz-adv-x="5556" d="M5264 0h-2632v1170h-1756v584h292v-292h1464v2340h-292v-292h-294v586h3218v-294h-2340v-1462h2048v-292h-2048v-1756h2340v-292zM2046 2924h-292v586h292v-586zM1754 2340h-292v584h292v-584zM1462 1754h-294v586h294v-586zM876 584h-292v586h292v-586zM584 0h-292v584 h292v-584z" />
<glyph unicode="&#xc7;" horiz-adv-x="3802" d="M2632 3802h-1464v294h1464v-294zM1168 3510h-292v292h292v-292zM2924 3510h-292v292h292v-292zM876 3218h-292v292h292v-292zM3216 3218h-292v292h292v-292zM584 876h-292v2342h292v-2342zM3510 2632h-294v586h294v-586zM3510 876h-294v586h294v-586zM876 584h-292v292 h292v-292zM3216 584h-292v292h292v-292zM1168 292h-292v292h292v-292zM2924 292h-292v292h292v-292zM2340 -584h-878v292h292v292h-586v292h1464v-292h-586v-292h294v-292zM2632 -876h-292v292h292v-292zM2340 -1170h-1024v294h1024v-294z" />
<glyph unicode="&#xc8;" horiz-adv-x="3216" d="M1462 4972h-294v294h294v-294zM1754 4680h-292v292h292v-292zM2046 4388h-292v292h292v-292zM2924 0h-2632v4096h2632v-294h-2340v-1462h2048v-292h-2048v-1756h2340v-292z" />
<glyph unicode="&#xc9;" horiz-adv-x="3216" d="M2046 4972h-292v294h292v-294zM1754 4680h-292v292h292v-292zM1462 4388h-294v292h294v-292zM2924 0h-2632v4096h2632v-294h-2340v-1462h2048v-292h-2048v-1756h2340v-292z" />
<glyph unicode="&#xca;" horiz-adv-x="3216" d="M1900 4972h-584v294h584v-294zM1316 4680h-294v292h294v-292zM2192 4680h-292v292h292v-292zM1022 4388h-292v292h292v-292zM2486 4388h-294v292h294v-292zM2924 0h-2632v4096h2632v-294h-2340v-1462h2048v-292h-2048v-1756h2340v-292z" />
<glyph unicode="&#xcb;" horiz-adv-x="3216" d="M1316 4534h-294v586h294v-586zM2192 4534h-292v586h292v-586zM2924 0h-2632v4096h2632v-294h-2340v-1462h2048v-292h-2048v-1756h2340v-292z" />
<glyph unicode="&#xcc;" horiz-adv-x="1460" d="M584 4972h-292v294h292v-294zM876 4680h-292v292h292v-292zM1168 4388h-292v292h292v-292zM1022 0h-292v4096h292v-4096z" />
<glyph unicode="&#xcd;" horiz-adv-x="1462" d="M1170 4972h-294v294h294v-294zM876 4680h-292v292h292v-292zM584 4388h-292v292h292v-292zM730 0h-292v4096h292v-4096z" />
<glyph unicode="&#xce;" horiz-adv-x="2338" d="M1460 4972h-584v294h584v-294zM876 4680h-292v292h292v-292zM1754 4680h-294v292h294v-292zM584 4388h-292v292h292v-292zM2046 4388h-292v292h292v-292zM1314 0h-292v4096h292v-4096z" />
<glyph unicode="&#xcf;" horiz-adv-x="1754" d="M584 4534h-292v586h292v-586zM1462 4534h-294v586h294v-586zM1022 0h-292v4096h292v-4096z" />
<glyph unicode="&#xd0;" horiz-adv-x="4094" d="M2924 0h-2048v1900h-584v294h584v1902h2048v-294h-1756v-1608h878v-294h-878v-1608h1756v-292zM3216 3510h-292v292h292v-292zM3510 3218h-294v292h294v-292zM3802 876h-292v2342h292v-2342zM3510 584h-294v292h294v-292zM3216 292h-292v292h292v-292z" />
<glyph unicode="&#xd1;" horiz-adv-x="3216" d="M1608 4826h-586v294h586v-294zM2486 4826h-294v294h294v-294zM1022 4534h-292v292h292v-292zM2192 4534h-584v292h584v-292zM584 0h-292v4096h584v-586h-292v-3510zM2924 0h-584v584h292v3512h292v-4096zM1168 2924h-292v586h292v-586zM1462 2340h-294v584h294v-584z M1754 1754h-292v586h292v-586zM2046 1170h-292v584h292v-584zM2340 584h-294v586h294v-586z" />
<glyph unicode="&#xd2;" horiz-adv-x="3802" d="M1608 4972h-292v294h292v-294zM1900 4680h-292v292h292v-292zM2192 4388h-292v292h292v-292zM2632 3802h-1464v294h1464v-294zM1168 3510h-292v292h292v-292zM2924 3510h-292v292h292v-292zM876 3218h-292v292h292v-292zM3216 3218h-292v292h292v-292zM584 876h-292v2342 h292v-2342zM3510 876h-294v2342h294v-2342zM876 584h-292v292h292v-292zM3216 584h-292v292h292v-292zM1168 292h-292v292h292v-292zM2924 292h-292v292h292v-292zM2632 0h-1464v292h1464v-292z" />
<glyph unicode="&#xd3;" horiz-adv-x="3802" d="M2486 4972h-294v294h294v-294zM2192 4680h-292v292h292v-292zM1900 4388h-292v292h292v-292zM2632 3802h-1464v294h1464v-294zM1168 3510h-292v292h292v-292zM2924 3510h-292v292h292v-292zM876 3218h-292v292h292v-292zM3216 3218h-292v292h292v-292zM584 876h-292v2342 h292v-2342zM3510 876h-294v2342h294v-2342zM876 584h-292v292h292v-292zM3216 584h-292v292h292v-292zM1168 292h-292v292h292v-292zM2924 292h-292v292h292v-292zM2632 0h-1464v292h1464v-292z" />
<glyph unicode="&#xd4;" horiz-adv-x="3802" d="M2192 4972h-584v294h584v-294zM1608 4680h-292v292h292v-292zM2486 4680h-294v292h294v-292zM1316 4388h-294v292h294v-292zM2778 4388h-292v292h292v-292zM2632 3802h-1464v294h1464v-294zM1168 3510h-292v292h292v-292zM2924 3510h-292v292h292v-292zM876 3218h-292 v292h292v-292zM3216 3218h-292v292h292v-292zM584 876h-292v2342h292v-2342zM3510 876h-294v2342h294v-2342zM876 584h-292v292h292v-292zM3216 584h-292v292h292v-292zM1168 292h-292v292h292v-292zM2924 292h-292v292h292v-292zM2632 0h-1464v292h1464v-292z" />
<glyph unicode="&#xd5;" horiz-adv-x="3802" d="M1900 4826h-584v294h584v-294zM2778 4826h-292v294h292v-294zM1316 4534h-294v292h294v-292zM2486 4534h-586v292h586v-292zM2632 3802h-1464v294h1464v-294zM1168 3510h-292v292h292v-292zM2924 3510h-292v292h292v-292zM876 3218h-292v292h292v-292zM3216 3218h-292 v292h292v-292zM584 876h-292v2342h292v-2342zM3510 876h-294v2342h294v-2342zM876 584h-292v292h292v-292zM3216 584h-292v292h292v-292zM1168 292h-292v292h292v-292zM2924 292h-292v292h292v-292zM2632 0h-1464v292h1464v-292z" />
<glyph unicode="&#xd6;" horiz-adv-x="3802" d="M1608 4534h-292v586h292v-586zM2486 4534h-294v586h294v-586zM2632 3802h-1464v294h1464v-294zM1168 3510h-292v292h292v-292zM2924 3510h-292v292h292v-292zM876 3218h-292v292h292v-292zM3216 3218h-292v292h292v-292zM584 876h-292v2342h292v-2342zM3510 876h-294 v2342h294v-2342zM876 584h-292v292h292v-292zM3216 584h-292v292h292v-292zM1168 292h-292v292h292v-292zM2924 292h-292v292h292v-292zM2632 0h-1464v292h1464v-292z" />
<glyph unicode="&#xd7;" horiz-adv-x="3216" d="M584 2632h-292v292h292v-292zM2924 2632h-292v292h292v-292zM876 2340h-292v292h292v-292zM2632 2340h-292v292h292v-292zM1168 2048h-292v292h292v-292zM2340 2048h-294v292h294v-292zM1462 1754h-294v294h294v-294zM2046 1754h-292v294h292v-294zM1754 1462h-292v292 h292v-292zM1462 1170h-294v292h294v-292zM2046 1170h-292v292h292v-292zM1168 876h-292v294h292v-294zM2340 876h-294v294h294v-294zM876 584h-292v292h292v-292zM2632 584h-292v292h292v-292zM584 292h-292v292h292v-292zM2924 292h-292v292h292v-292z" />
<glyph unicode="&#xd8;" horiz-adv-x="3802" d="M2632 3802h-1464v294h1464v-294zM3510 3802h-294v294h294v-294zM1168 3510h-292v292h292v-292zM3216 3218h-584v584h584v-584zM876 3218h-292v292h292v-292zM584 876h-292v2342h292v-2342zM2632 2632h-292v586h292v-586zM3510 876h-294v2342h294v-2342zM2340 2340h-294 v292h294v-292zM2046 1754h-292v586h292v-586zM1754 1462h-292v292h292v-292zM1462 876h-294v586h294v-586zM1168 292h-584v584h584v-584zM3216 584h-292v292h292v-292zM2924 292h-292v292h292v-292zM584 0h-292v292h292v-292zM2632 0h-1464v292h1464v-292z" />
<glyph unicode="&#xd9;" horiz-adv-x="3216" d="M1316 4972h-294v294h294v-294zM1608 4680h-292v292h292v-292zM1900 4388h-292v292h292v-292zM584 584h-292v3512h292v-3512zM2924 584h-292v3512h292v-3512zM876 292h-292v292h292v-292zM2632 292h-292v292h292v-292zM2340 0h-1464v292h1464v-292z" />
<glyph unicode="&#xda;" horiz-adv-x="3216" d="M2192 4972h-292v294h292v-294zM1900 4680h-292v292h292v-292zM1608 4388h-292v292h292v-292zM584 584h-292v3512h292v-3512zM2924 584h-292v3512h292v-3512zM876 292h-292v292h292v-292zM2632 292h-292v292h292v-292zM2340 0h-1464v292h1464v-292z" />
<glyph unicode="&#xdb;" horiz-adv-x="3216" d="M1900 4972h-584v294h584v-294zM1316 4680h-294v292h294v-292zM2192 4680h-292v292h292v-292zM1022 4388h-292v292h292v-292zM2486 4388h-294v292h294v-292zM584 584h-292v3512h292v-3512zM2924 584h-292v3512h292v-3512zM876 292h-292v292h292v-292zM2632 292h-292v292 h292v-292zM2340 0h-1464v292h1464v-292z" />
<glyph unicode="&#xdc;" horiz-adv-x="3216" d="M1316 4534h-294v586h294v-586zM2192 4534h-292v586h292v-586zM584 584h-292v3512h292v-3512zM2924 584h-292v3512h292v-3512zM876 292h-292v292h292v-292zM2632 292h-292v292h292v-292zM2340 0h-1464v292h1464v-292z" />
<glyph unicode="&#xdd;" horiz-adv-x="3216" d="M2192 4972h-292v294h292v-294zM1900 4680h-292v292h292v-292zM1608 4388h-292v292h292v-292zM584 3510h-292v586h292v-586zM2924 3510h-292v586h292v-586zM876 2924h-292v586h292v-586zM2632 2924h-292v586h292v-586zM1168 2340h-292v584h292v-584zM2340 2340h-294v584 h294v-584zM1462 1754h-294v586h294v-586zM2046 1754h-292v586h292v-586zM1754 0h-292v1754h292v-1754z" />
<glyph unicode="&#xde;" horiz-adv-x="3216" d="M584 0h-292v4096h292v-586h1462v-292h-1462v-2342h1462v-292h-1462v-584zM2340 2924h-294v294h294v-294zM2632 2632h-292v292h292v-292zM2924 1462h-292v1170h292v-1170zM2632 1170h-292v292h292v-292zM2340 876h-294v294h294v-294z" />
<glyph unicode="&#xdf;" horiz-adv-x="3216" d="M2046 3802h-1170v294h1170v-294zM876 3510h-292v292h292v-292zM2340 3510h-294v292h294v-292zM584 0h-292v3510h292v-3510zM2632 2924h-292v586h292v-586zM2340 2632h-294v292h294v-292zM2046 2048h-292v584h292v-584zM2340 1754h-294v294h294v-294zM2632 1462h-292v292 h292v-292zM2924 584h-292v878h292v-878zM2632 292h-292v292h292v-292zM2340 0h-1172v292h1172v-292z" />
<glyph unicode="&#xe0;" horiz-adv-x="3216" d="M1168 3802h-292v294h292v-294zM1462 3510h-294v292h294v-292zM1754 3218h-292v292h292v-292zM2046 2632h-1170v292h1170v-292zM876 2340h-292v292h292v-292zM2340 2340h-294v292h294v-292zM584 2048h-292v292h292v-292zM2632 292h-292v292h-294v292h294v878h-294v294h294 v292h292v-2048zM2046 1462h-1170v292h1170v-292zM876 1170h-292v292h292v-292zM584 584h-292v586h292v-586zM876 292h-292v292h292v-292zM2046 292h-292v292h292v-292zM1754 0h-878v292h878v-292zM2924 0h-292v292h292v-292z" />
<glyph unicode="&#xe1;" horiz-adv-x="3216" d="M2046 3802h-292v294h292v-294zM1754 3510h-292v292h292v-292zM1462 3218h-294v292h294v-292zM2046 2632h-1170v292h1170v-292zM876 2340h-292v292h292v-292zM2340 2340h-294v292h294v-292zM584 2048h-292v292h292v-292zM2632 292h-292v292h-294v292h294v878h-294v294h294 v292h292v-2048zM2046 1462h-1170v292h1170v-292zM876 1170h-292v292h292v-292zM584 584h-292v586h292v-586zM876 292h-292v292h292v-292zM2046 292h-292v292h292v-292zM1754 0h-878v292h878v-292zM2924 0h-292v292h292v-292z" />
<glyph unicode="&#xe2;" horiz-adv-x="3216" d="M1754 3802h-586v294h586v-294zM1168 3510h-292v292h292v-292zM2046 3510h-292v292h292v-292zM876 3218h-292v292h292v-292zM2340 3218h-294v292h294v-292zM2046 2632h-1170v292h1170v-292zM876 2340h-292v292h292v-292zM2340 2340h-294v292h294v-292zM584 2048h-292v292 h292v-292zM2632 292h-292v292h-294v292h294v878h-294v294h294v292h292v-2048zM2046 1462h-1170v292h1170v-292zM876 1170h-292v292h292v-292zM584 584h-292v586h292v-586zM876 292h-292v292h292v-292zM2046 292h-292v292h292v-292zM1754 0h-878v292h878v-292zM2924 0h-292 v292h292v-292z" />
<glyph unicode="&#xe3;" horiz-adv-x="3216" d="M1462 3656h-586v292h586v-292zM2340 3656h-294v292h294v-292zM876 3364h-292v292h292v-292zM2046 3364h-584v292h584v-292zM2046 2632h-1170v292h1170v-292zM876 2340h-292v292h292v-292zM2340 2340h-294v292h294v-292zM584 2048h-292v292h292v-292zM2632 292h-292v292 h-294v292h294v878h-294v294h294v292h292v-2048zM2046 1462h-1170v292h1170v-292zM876 1170h-292v292h292v-292zM584 584h-292v586h292v-586zM876 292h-292v292h292v-292zM2046 292h-292v292h292v-292zM1754 0h-878v292h878v-292zM2924 0h-292v292h292v-292z" />
<glyph unicode="&#xe4;" horiz-adv-x="3216" d="M1168 3364h-292v584h292v-584zM2046 3364h-292v584h292v-584zM2046 2632h-1170v292h1170v-292zM876 2340h-292v292h292v-292zM2340 2340h-294v292h294v-292zM584 2048h-292v292h292v-292zM2632 292h-292v292h-294v292h294v878h-294v294h294v292h292v-2048zM2046 1462 h-1170v292h1170v-292zM876 1170h-292v292h292v-292zM584 584h-292v586h292v-586zM876 292h-292v292h292v-292zM2046 292h-292v292h292v-292zM1754 0h-878v292h878v-292zM2924 0h-292v292h292v-292z" />
<glyph unicode="&#xe5;" horiz-adv-x="3216" d="M1754 4096h-586v292h586v-292zM1168 3510h-292v586h292v-586zM2046 3510h-292v586h292v-586zM1754 3218h-586v292h586v-292zM2046 2632h-1170v292h1170v-292zM876 2340h-292v292h292v-292zM2340 2340h-294v292h294v-292zM584 2048h-292v292h292v-292zM2632 292h-292v292 h-294v292h294v878h-294v294h294v292h292v-2048zM2046 1462h-1170v292h1170v-292zM876 1170h-292v292h292v-292zM584 584h-292v586h292v-586zM876 292h-292v292h292v-292zM2046 292h-292v292h292v-292zM1754 0h-878v292h878v-292zM2924 0h-292v292h292v-292z" />
<glyph unicode="&#xe6;" horiz-adv-x="4972" d="M2046 2632h-1170v292h1170v-292zM4094 2632h-1170v292h1170v-292zM876 2340h-292v292h292v-292zM2340 2340h-294v292h294v-292zM2924 2340h-292v292h292v-292zM4388 2340h-294v292h294v-292zM584 2048h-292v292h292v-292zM2632 584h-292v1170h-294v294h294v292h292v-586 h1756v586h292v-878h-2048v-878zM2046 1462h-1170v292h1170v-292zM876 1170h-292v292h292v-292zM584 584h-292v586h292v-586zM4680 584h-292v586h292v-586zM876 292h-292v292h292v-292zM2340 292h-294v292h294v-292zM2924 292h-292v292h292v-292zM4388 292h-294v292h294v-292 zM2046 0h-1170v292h1170v-292zM4094 0h-1170v292h1170v-292z" />
<glyph unicode="&#xe7;" d="M2046 2632h-1170v292h1170v-292zM876 2340h-292v292h292v-292zM2340 2340h-294v292h294v-292zM584 584h-292v1756h292v-1756zM2632 2048h-292v292h292v-292zM2632 584h-292v292h292v-292zM876 292h-292v292h292v-292zM2340 292h-294v292h294v-292zM1900 -584h-878v292 h294v292h-440v292h1170v-292h-438v-292h292v-292zM2192 -876h-292v292h292v-292zM1900 -1170h-1024v294h1024v-294z" />
<glyph unicode="&#xe8;" d="M1168 3802h-292v294h292v-294zM1462 3510h-294v292h294v-292zM1754 3218h-292v292h292v-292zM2046 2632h-1170v292h1170v-292zM876 2340h-292v292h292v-292zM2340 2340h-294v292h294v-292zM584 584h-292v1756h292v-586h1756v586h292v-878h-2048v-878zM2632 584h-292v440 h292v-440zM876 292h-292v292h292v-292zM2340 292h-294v292h294v-292zM2046 0h-1170v292h1170v-292z" />
<glyph unicode="&#xe9;" d="M2046 3802h-292v294h292v-294zM1754 3510h-292v292h292v-292zM1462 3218h-294v292h294v-292zM2046 2632h-1170v292h1170v-292zM876 2340h-292v292h292v-292zM2340 2340h-294v292h294v-292zM584 584h-292v1756h292v-586h1756v586h292v-878h-2048v-878zM2632 584h-292v440 h292v-440zM876 292h-292v292h292v-292zM2340 292h-294v292h294v-292zM2046 0h-1170v292h1170v-292z" />
<glyph unicode="&#xea;" d="M1754 3802h-586v294h586v-294zM1168 3510h-292v292h292v-292zM2046 3510h-292v292h292v-292zM876 3218h-292v292h292v-292zM2340 3218h-294v292h294v-292zM2046 2632h-1170v292h1170v-292zM876 2340h-292v292h292v-292zM2340 2340h-294v292h294v-292zM584 584h-292v1756 h292v-586h1756v586h292v-878h-2048v-878zM2632 584h-292v440h292v-440zM876 292h-292v292h292v-292zM2340 292h-294v292h294v-292zM2046 0h-1170v292h1170v-292z" />
<glyph unicode="&#xeb;" d="M1168 3364h-292v584h292v-584zM2046 3364h-292v584h292v-584zM2046 2632h-1170v292h1170v-292zM876 2340h-292v292h292v-292zM2340 2340h-294v292h294v-292zM584 584h-292v1756h292v-586h1756v586h292v-878h-2048v-878zM2632 584h-292v440h292v-440zM876 292h-292v292 h292v-292zM2340 292h-294v292h294v-292zM2046 0h-1170v292h1170v-292z" />
<glyph unicode="&#xec;" horiz-adv-x="1460" d="M584 3802h-292v294h292v-294zM876 3510h-292v292h292v-292zM1168 3218h-292v292h292v-292zM1022 0h-292v2924h292v-2924z" />
<glyph unicode="&#xed;" horiz-adv-x="1462" d="M1170 3802h-294v294h294v-294zM876 3510h-292v292h292v-292zM584 3218h-292v292h292v-292zM730 0h-292v2924h292v-2924z" />
<glyph unicode="&#xee;" horiz-adv-x="2338" d="M1460 3802h-584v294h584v-294zM876 3510h-292v292h292v-292zM1754 3510h-294v292h294v-292zM584 3218h-292v292h292v-292zM2046 3218h-292v292h292v-292zM1314 0h-292v2924h292v-2924z" />
<glyph unicode="&#xef;" horiz-adv-x="1754" d="M584 3364h-292v584h292v-584zM1462 3364h-294v584h294v-584zM1022 0h-292v2924h292v-2924z" />
<glyph unicode="&#xf0;" d="M1754 3802h-1170v294h1170v-294zM2340 3802h-294v294h294v-294zM2046 3510h-292v292h292v-292zM1754 3218h-292v292h292v-292zM2340 3218h-294v292h294v-292zM2632 584h-292v1756h-294v292h294v586h292v-2634zM2046 2632h-1170v292h1170v-292zM876 2340h-292v292h292 v-292zM584 584h-292v1756h292v-1756zM876 292h-292v292h292v-292zM2340 292h-294v292h294v-292zM2046 0h-1170v292h1170v-292z" />
<glyph unicode="&#xf1;" d="M1462 3656h-586v292h586v-292zM2340 3656h-294v292h294v-292zM876 3364h-292v292h292v-292zM2046 3364h-584v292h584v-292zM584 0h-292v2924h292v-584h292v-292h-292v-2048zM2046 2632h-878v292h878v-292zM1168 2340h-292v292h292v-292zM2340 2340h-294v292h294v-292z M2632 0h-292v2340h292v-2340z" />
<glyph unicode="&#xf2;" d="M1168 3802h-292v294h292v-294zM1462 3510h-294v292h294v-292zM1754 3218h-292v292h292v-292zM2046 2632h-1170v292h1170v-292zM876 2340h-292v292h292v-292zM2340 2340h-294v292h294v-292zM584 584h-292v1756h292v-1756zM2632 584h-292v1756h292v-1756zM876 292h-292v292 h292v-292zM2340 292h-294v292h294v-292zM2046 0h-1170v292h1170v-292z" />
<glyph unicode="&#xf3;" d="M2046 3802h-292v294h292v-294zM1754 3510h-292v292h292v-292zM1462 3218h-294v292h294v-292zM2046 2632h-1170v292h1170v-292zM876 2340h-292v292h292v-292zM2340 2340h-294v292h294v-292zM584 584h-292v1756h292v-1756zM2632 584h-292v1756h292v-1756zM876 292h-292v292 h292v-292zM2340 292h-294v292h294v-292zM2046 0h-1170v292h1170v-292z" />
<glyph unicode="&#xf4;" d="M1754 3802h-586v294h586v-294zM1168 3510h-292v292h292v-292zM2046 3510h-292v292h292v-292zM876 3218h-292v292h292v-292zM2340 3218h-294v292h294v-292zM2046 2632h-1170v292h1170v-292zM876 2340h-292v292h292v-292zM2340 2340h-294v292h294v-292zM584 584h-292v1756 h292v-1756zM2632 584h-292v1756h292v-1756zM876 292h-292v292h292v-292zM2340 292h-294v292h294v-292zM2046 0h-1170v292h1170v-292z" />
<glyph unicode="&#xf5;" d="M1462 3656h-586v292h586v-292zM2340 3656h-294v292h294v-292zM876 3364h-292v292h292v-292zM2046 3364h-584v292h584v-292zM2046 2632h-1170v292h1170v-292zM876 2340h-292v292h292v-292zM2340 2340h-294v292h294v-292zM584 584h-292v1756h292v-1756zM2632 584h-292v1756 h292v-1756zM876 292h-292v292h292v-292zM2340 292h-294v292h294v-292zM2046 0h-1170v292h1170v-292z" />
<glyph unicode="&#xf6;" d="M1168 3364h-292v584h292v-584zM2046 3364h-292v584h292v-584zM2046 2632h-1170v292h1170v-292zM876 2340h-292v292h292v-292zM2340 2340h-294v292h294v-292zM584 584h-292v1756h292v-1756zM2632 584h-292v1756h292v-1756zM876 292h-292v292h292v-292zM2340 292h-294v292 h294v-292zM2046 0h-1170v292h1170v-292z" />
<glyph unicode="&#xf7;" horiz-adv-x="3802" d="M2046 2340h-292v584h292v-584zM3510 1462h-3218v292h3218v-292zM2046 292h-292v584h292v-584z" />
<glyph unicode="&#xf8;" d="M2046 2632h-1170v292h1170v-292zM2632 2632h-292v292h292v-292zM876 2340h-292v292h292v-292zM2340 2340h-294v292h294v-292zM584 584h-292v1756h292v-1756zM2046 2048h-292v292h292v-292zM2632 584h-292v1756h292v-1756zM1754 1462h-292v586h292v-586zM1462 876h-294 v586h294v-586zM1168 584h-292v292h292v-292zM876 292h-292v292h292v-292zM2340 292h-294v292h294v-292zM584 0h-292v292h292v-292zM2046 0h-1170v292h1170v-292z" />
<glyph unicode="&#xf9;" d="M1168 3802h-292v294h292v-294zM1462 3510h-294v292h294v-292zM1754 3218h-292v292h292v-292zM584 584h-292v2340h292v-2340zM2632 0h-292v584h-294v292h294v2048h292v-2924zM876 292h-292v292h292v-292zM2046 292h-292v292h292v-292zM1754 0h-878v292h878v-292z" />
<glyph unicode="&#xfa;" d="M2046 3802h-292v294h292v-294zM1754 3510h-292v292h292v-292zM1462 3218h-294v292h294v-292zM584 584h-292v2340h292v-2340zM2632 0h-292v584h-294v292h294v2048h292v-2924zM876 292h-292v292h292v-292zM2046 292h-292v292h292v-292zM1754 0h-878v292h878v-292z" />
<glyph unicode="&#xfb;" d="M1754 3802h-586v294h586v-294zM1168 3510h-292v292h292v-292zM2046 3510h-292v292h292v-292zM876 3218h-292v292h292v-292zM2340 3218h-294v292h294v-292zM584 584h-292v2340h292v-2340zM2632 0h-292v584h-294v292h294v2048h292v-2924zM876 292h-292v292h292v-292z M2046 292h-292v292h292v-292zM1754 0h-878v292h878v-292z" />
<glyph unicode="&#xfc;" d="M1168 3364h-292v584h292v-584zM2046 3364h-292v584h292v-584zM584 584h-292v2340h292v-2340zM2632 0h-292v584h-294v292h294v2048h292v-2924zM876 292h-292v292h292v-292zM2046 292h-292v292h292v-292zM1754 0h-878v292h878v-292z" />
<glyph unicode="&#xfd;" horiz-adv-x="3216" d="M2192 3802h-292v294h292v-294zM1900 3510h-292v292h292v-292zM1608 3218h-292v292h292v-292zM584 2340h-292v584h292v-584zM2924 2340h-292v584h292v-584zM876 1754h-292v586h292v-586zM2632 1754h-292v586h292v-586zM1168 1170h-292v584h292v-584zM2340 1170h-294v584 h294v-584zM1462 584h-294v586h294v-586zM2046 584h-292v586h292v-586zM1754 0h-292v584h292v-584zM1462 -584h-294v584h294v-584zM1168 -876h-292v292h292v-292zM876 -1170h-584v294h584v-294z" />
<glyph unicode="&#xfe;" d="M584 -1170h-292v5266h292v-1756h292v-292h-292v-1172h292v-292h-292v-1754zM2046 2632h-878v292h878v-292zM1168 2340h-292v292h292v-292zM2340 2340h-294v292h294v-292zM2632 584h-292v1756h292v-1756zM1168 292h-292v292h292v-292zM2340 292h-294v292h294v-292zM2046 0 h-878v292h878v-292z" />
<glyph unicode="&#xff;" horiz-adv-x="3216" d="M1316 3364h-294v584h294v-584zM2192 3364h-292v584h292v-584zM584 2340h-292v584h292v-584zM2924 2340h-292v584h292v-584zM876 1754h-292v586h292v-586zM2632 1754h-292v586h292v-586zM1168 1170h-292v584h292v-584zM2340 1170h-294v584h294v-584zM1462 584h-294v586 h294v-586zM2046 584h-292v586h292v-586zM1754 0h-292v584h292v-584zM1462 -584h-294v584h294v-584zM1168 -876h-292v292h292v-292zM876 -1170h-584v294h584v-294z" />
<glyph unicode="&#x13f;" d="M2632 0h-2340v4096h292v-3804h2048v-292zM2340 1754h-586v586h586v-586z" />
<glyph unicode="&#x140;" horiz-adv-x="1900" d="M584 0h-292v4096h292v-4096zM1608 1754h-584v586h584v-586z" />
<glyph unicode="&#x152;" horiz-adv-x="5850" d="M2632 3802h-1464v294h1464v-294zM5558 0h-2634v292h-292v292h292v2926h-292v292h292v294h2634v-294h-2342v-1462h2048v-292h-2048v-1756h2342v-292zM1168 3510h-292v292h292v-292zM876 3218h-292v292h292v-292zM584 876h-292v2342h292v-2342zM876 584h-292v292h292v-292z M1168 292h-292v292h292v-292zM2632 0h-1464v292h1464v-292z" />
<glyph unicode="&#x153;" horiz-adv-x="4972" d="M2046 2632h-1170v292h1170v-292zM4094 2632h-1170v292h1170v-292zM876 2340h-292v292h292v-292zM2340 2340h-294v292h294v-292zM2924 2340h-292v292h292v-292zM4388 2340h-294v292h294v-292zM584 584h-292v1756h292v-1756zM2632 584h-292v1756h292v-586h1756v586h292 v-878h-2048v-878zM4680 584h-292v440h292v-440zM876 292h-292v292h292v-292zM2340 292h-294v292h294v-292zM2924 292h-292v292h292v-292zM4388 292h-294v292h294v-292zM2046 0h-1170v292h1170v-292zM4094 0h-1170v292h1170v-292z" />
<glyph unicode="&#x178;" horiz-adv-x="3216" d="M1316 4534h-294v586h294v-586zM2192 4534h-292v586h292v-586zM584 3510h-292v586h292v-586zM2924 3510h-292v586h292v-586zM876 2924h-292v586h292v-586zM2632 2924h-292v586h292v-586zM1168 2340h-292v584h292v-584zM2340 2340h-294v584h294v-584zM1462 1754h-294v586 h294v-586zM2046 1754h-292v586h292v-586zM1754 0h-292v1754h292v-1754z" />
<glyph unicode="&#x2000;" horiz-adv-x="2779" />
<glyph unicode="&#x2001;" horiz-adv-x="5558" />
<glyph unicode="&#x2002;" horiz-adv-x="2779" />
<glyph unicode="&#x2003;" horiz-adv-x="5558" />
<glyph unicode="&#x2004;" horiz-adv-x="1852" />
<glyph unicode="&#x2005;" horiz-adv-x="1389" />
<glyph unicode="&#x2006;" horiz-adv-x="926" />
<glyph unicode="&#x2007;" horiz-adv-x="926" />
<glyph unicode="&#x2008;" horiz-adv-x="694" />
<glyph unicode="&#x2009;" horiz-adv-x="1111" />
<glyph unicode="&#x200a;" horiz-adv-x="308" />
<glyph unicode="&#x2010;" d="M2632 1462h-2340v292h2340v-292z" />
<glyph unicode="&#x2011;" d="M2632 1462h-2340v292h2340v-292z" />
<glyph unicode="&#x2012;" d="M2632 1462h-2340v292h2340v-292z" />
<glyph unicode="&#x2013;" horiz-adv-x="2632" d="M2340 1462h-2048v292h2048v-292z" />
<glyph unicode="&#x2014;" horiz-adv-x="4680" d="M4388 1462h-4096v292h4096v-292z" />
<glyph unicode="&#x2018;" horiz-adv-x="1168" d="M876 3802h-292v294h292v-294zM584 2924h-292v878h292v-878z" />
<glyph unicode="&#x2019;" horiz-adv-x="1170" d="M876 3218h-292v878h292v-878zM584 2924h-292v294h292v-294z" />
<glyph unicode="&#x201a;" horiz-adv-x="1168" d="M876 292h-292v878h292v-878zM584 0h-292v292h292v-292z" />
<glyph unicode="&#x201c;" horiz-adv-x="2046" d="M876 3802h-292v294h292v-294zM1754 3802h-292v294h292v-294zM584 2924h-292v878h292v-878zM1462 2924h-294v878h294v-878z" />
<glyph unicode="&#x201d;" horiz-adv-x="2046" d="M876 3218h-292v878h292v-878zM1754 3218h-292v878h292v-878zM584 2924h-292v294h292v-294zM1462 2924h-294v294h294v-294z" />
<glyph unicode="&#x201e;" horiz-adv-x="2046" d="M876 292h-292v878h292v-878zM1754 292h-292v878h292v-878zM584 0h-292v292h292v-292zM1462 0h-294v292h294v-292z" />
<glyph unicode="&#x2022;" horiz-adv-x="2340" d="M2048 1170h-1756v1754h1756v-1754z" />
<glyph unicode="&#x202f;" horiz-adv-x="1111" />
<glyph unicode="&#x2039;" horiz-adv-x="1754" d="M1462 2340h-294v292h294v-292zM1168 2048h-292v292h292v-292zM876 1754h-292v294h292v-294zM584 1170h-292v584h292v-584zM876 876h-292v294h292v-294zM1168 584h-292v292h292v-292zM1462 292h-294v292h294v-292z" />
<glyph unicode="&#x203a;" horiz-adv-x="1754" d="M584 2340h-292v292h292v-292zM876 2048h-292v292h292v-292zM1168 1754h-292v294h292v-294zM1462 1170h-294v584h294v-584zM1168 876h-292v294h292v-294zM876 584h-292v292h292v-292zM584 292h-292v292h292v-292z" />
<glyph unicode="&#x205f;" horiz-adv-x="1389" />
<glyph unicode="&#x2070;" horiz-adv-x="2046" d="M1462 3802h-878v294h878v-294zM584 2340h-292v1462h292v-1462zM1754 2340h-292v1462h292v-1462zM1462 2048h-878v292h878v-292z" />
<glyph unicode="&#x2074;" horiz-adv-x="2046" d="M1462 2048h-294v584h-876v586h292v-294h584v878h-292v294h586v-1172h292v-292h-292v-584zM876 3218h-292v584h292v-584z" />
<glyph unicode="&#x2075;" horiz-adv-x="2046" d="M1462 3802h-878v294h878v-294zM1462 2924h-1170v878h292v-584h878v-294zM1754 2340h-292v584h292v-584zM584 2340h-292v292h292v-292zM1462 2048h-878v292h878v-292z" />
<glyph unicode="&#x2076;" horiz-adv-x="2046" d="M1462 3802h-878v294h878v-294zM584 2340h-292v1462h292v-584h878v-294h-878v-584zM1754 3510h-292v292h292v-292zM1754 2340h-292v584h292v-584zM1462 2048h-878v292h878v-292z" />
<glyph unicode="&#x2077;" horiz-adv-x="2046" d="M1754 3510h-292v292h-1170v294h1462v-586zM1462 3218h-294v292h294v-292zM1168 2632h-292v586h292v-586zM876 2048h-292v584h292v-584z" />
<glyph unicode="&#x2078;" horiz-adv-x="2046" d="M1462 3802h-878v294h878v-294zM584 3218h-292v584h292v-584zM1754 3218h-292v584h292v-584zM1462 2924h-878v294h878v-294zM584 2340h-292v584h292v-584zM1754 2340h-292v584h292v-584zM1462 2048h-878v292h878v-292z" />
<glyph unicode="&#x2079;" horiz-adv-x="2046" d="M1462 3802h-878v294h878v-294zM584 3218h-292v584h292v-584zM1754 2340h-292v584h-878v294h878v584h292v-1462zM584 2340h-292v292h292v-292zM1462 2048h-878v292h878v-292z" />
<glyph unicode="&#x207a;" horiz-adv-x="2046" d="M1168 2340h-292v584h-584v294h584v584h292v-584h586v-294h-586v-584z" />
<glyph unicode="&#x207c;" horiz-adv-x="2046" d="M1754 3218h-1462v292h1462v-292zM1754 2632h-1462v292h1462v-292z" />
<glyph unicode="&#x207d;" horiz-adv-x="1168" d="M876 4096h-292v292h292v-292zM584 2048h-292v2048h292v-2048zM876 1754h-292v294h292v-294z" />
<glyph unicode="&#x207e;" horiz-adv-x="1168" d="M584 4096h-292v292h292v-292zM876 2048h-292v2048h292v-2048zM584 1754h-292v294h292v-294z" />
<glyph unicode="&#x2080;" horiz-adv-x="2046" d="M1462 1754h-878v294h878v-294zM584 292h-292v1462h292v-1462zM1754 292h-292v1462h292v-1462zM1462 0h-878v292h878v-292z" />
<glyph unicode="&#x2081;" horiz-adv-x="1168" d="M876 0h-292v1462h-292v292h292v294h292v-2048z" />
<glyph unicode="&#x2082;" horiz-adv-x="1754" d="M1168 1754h-584v294h584v-294zM584 1462h-292v292h292v-292zM1462 1170h-294v584h294v-584zM1168 876h-292v294h292v-294zM876 584h-292v292h292v-292zM1462 0h-1170v584h292v-292h878v-292z" />
<glyph unicode="&#x2083;" horiz-adv-x="1754" d="M1168 1754h-584v294h584v-294zM584 1462h-292v292h292v-292zM1462 1170h-294v584h294v-584zM1168 876h-584v294h584v-294zM1462 292h-294v584h294v-584zM584 292h-292v292h292v-292zM1168 0h-584v292h584v-292z" />
<glyph unicode="&#x2084;" horiz-adv-x="2046" d="M1462 0h-294v584h-876v586h292v-294h584v878h-292v294h586v-1172h292v-292h-292v-584zM876 1170h-292v584h292v-584z" />
<glyph unicode="&#x2085;" horiz-adv-x="2046" d="M1462 1754h-878v294h878v-294zM1462 876h-1170v878h292v-584h878v-294zM1754 292h-292v584h292v-584zM584 292h-292v292h292v-292zM1462 0h-878v292h878v-292z" />
<glyph unicode="&#x2086;" horiz-adv-x="2046" d="M1462 1754h-878v294h878v-294zM584 292h-292v1462h292v-584h878v-294h-878v-584zM1754 1462h-292v292h292v-292zM1754 292h-292v584h292v-584zM1462 0h-878v292h878v-292z" />
<glyph unicode="&#x2087;" horiz-adv-x="2046" d="M1754 1462h-292v292h-1170v294h1462v-586zM1462 1170h-294v292h294v-292zM1168 584h-292v586h292v-586zM876 0h-292v584h292v-584z" />
<glyph unicode="&#x2088;" horiz-adv-x="2046" d="M1462 1754h-878v294h878v-294zM584 1170h-292v584h292v-584zM1754 1170h-292v584h292v-584zM1462 876h-878v294h878v-294zM584 292h-292v584h292v-584zM1754 292h-292v584h292v-584zM1462 0h-878v292h878v-292z" />
<glyph unicode="&#x2089;" horiz-adv-x="2046" d="M1462 1754h-878v294h878v-294zM584 1170h-292v584h292v-584zM1754 292h-292v584h-878v294h878v584h292v-1462zM584 292h-292v292h292v-292zM1462 0h-878v292h878v-292z" />
<glyph unicode="&#x208a;" horiz-adv-x="2046" d="M1168 292h-292v584h-584v294h584v584h292v-584h586v-294h-586v-584z" />
<glyph unicode="&#x208c;" horiz-adv-x="2046" d="M1754 1170h-1462v292h1462v-292zM1754 584h-1462v292h1462v-292z" />
<glyph unicode="&#x208d;" horiz-adv-x="1168" d="M876 2048h-292v292h292v-292zM584 0h-292v2048h292v-2048zM876 -292h-292v292h292v-292z" />
<glyph unicode="&#x208e;" horiz-adv-x="1168" d="M584 2048h-292v292h292v-292zM876 0h-292v2048h292v-2048zM584 -292h-292v292h292v-292z" />
<glyph unicode="&#x20ac;" horiz-adv-x="3802" d="M2924 3802h-1462v294h1462v-294zM1462 3510h-294v292h294v-292zM3216 3510h-292v292h292v-292zM1168 3218h-292v292h292v-292zM3510 3218h-294v292h294v-292zM876 876h-292v586h-292v292h292v586h-292v292h292v586h292v-586h2340v-292h-2340v-586h2048v-292h-2048v-586z M1168 584h-292v292h292v-292zM3510 584h-294v292h294v-292zM1462 292h-294v292h294v-292zM3216 292h-292v292h292v-292zM2924 0h-1462v292h1462v-292z" />
<glyph unicode="&#x2116;" horiz-adv-x="5118" d="M584 0h-292v4096h584v-586h-292v-3510zM2924 0h-584v584h292v3512h292v-4096zM1168 2924h-292v586h292v-586zM1462 2340h-294v584h294v-584zM4534 2632h-878v292h878v-292zM3656 1462h-292v1170h292v-1170zM4826 1462h-292v1170h292v-1170zM1754 1754h-292v586h292v-586z M2046 1170h-292v584h292v-584zM4534 1170h-878v292h878v-292zM2340 584h-294v586h294v-586zM4826 0h-1462v292h1462v-292z" />
<glyph unicode="&#x2122;" horiz-adv-x="4826" d="M1022 1754h-292v2048h-584v294h1462v-294h-586v-2048zM2194 1754h-294v2342h586v-586h-292v-1756zM4534 1754h-292v1756h-294v586h586v-2342zM2778 2924h-292v586h292v-586zM3948 2924h-292v586h292v-586zM3070 2340h-292v584h292v-584zM3656 2340h-292v584h292v-584z M3364 1754h-294v586h294v-586z" />
<glyph unicode="&#x2153;" horiz-adv-x="3508" d="M876 2048h-292v1462h-292v292h292v294h292v-2048zM2632 3510h-292v586h292v-586zM2340 2924h-294v586h294v-586zM2046 2340h-292v584h292v-584zM1754 1754h-292v586h292v-586zM2924 1754h-584v294h584v-294zM1462 1170h-294v584h294v-584zM2340 1462h-294v292h294v-292z M3216 1170h-292v584h292v-584zM1168 584h-292v586h292v-586zM2924 876h-584v294h584v-294zM3216 292h-292v584h292v-584zM876 0h-292v584h292v-584zM2340 292h-294v292h294v-292zM2924 0h-584v292h584v-292z" />
<glyph unicode="&#x2154;" horiz-adv-x="3802" d="M1168 3802h-584v294h584v-294zM2924 3510h-292v586h292v-586zM584 3510h-292v292h292v-292zM1462 3218h-294v584h294v-584zM2632 2924h-292v586h292v-586zM1168 2924h-292v294h292v-294zM876 2632h-292v292h292v-292zM2340 2340h-294v584h294v-584zM1462 2048h-1170v584 h292v-292h878v-292zM2046 1754h-292v586h292v-586zM3216 1754h-584v294h584v-294zM1754 1170h-292v584h292v-584zM2632 1462h-292v292h292v-292zM3510 1170h-294v584h294v-584zM1462 584h-294v586h294v-586zM3216 876h-584v294h584v-294zM3510 292h-294v584h294v-584z M1168 0h-292v584h292v-584zM2632 292h-292v292h292v-292zM3216 0h-584v292h584v-292z" />
<glyph unicode="&#x2155;" horiz-adv-x="3802" d="M876 2048h-292v1462h-292v292h292v294h292v-2048zM2632 3510h-292v586h292v-586zM2340 2924h-294v586h294v-586zM2046 2340h-292v584h292v-584zM1754 1754h-292v586h292v-586zM3216 1754h-876v294h876v-294zM1462 1170h-294v584h294v-584zM3216 876h-1170v878h294v-584 h876v-294zM1168 584h-292v586h292v-586zM3510 292h-294v584h294v-584zM876 0h-292v584h292v-584zM2340 292h-294v292h294v-292zM3216 0h-876v292h876v-292z" />
<glyph unicode="&#x2156;" horiz-adv-x="4094" d="M1168 3802h-584v294h584v-294zM2924 3510h-292v586h292v-586zM584 3510h-292v292h292v-292zM1462 3218h-294v584h294v-584zM2632 2924h-292v586h292v-586zM1168 2924h-292v294h292v-294zM876 2632h-292v292h292v-292zM2340 2340h-294v584h294v-584zM1462 2048h-1170v584 h292v-292h878v-292zM2046 1754h-292v586h292v-586zM3510 1754h-878v294h878v-294zM1754 1170h-292v584h292v-584zM3510 876h-1170v878h292v-584h878v-294zM1462 584h-294v586h294v-586zM3802 292h-292v584h292v-584zM1168 0h-292v584h292v-584zM2632 292h-292v292h292v-292z M3510 0h-878v292h878v-292z" />
<glyph unicode="&#x2157;" horiz-adv-x="4094" d="M1168 3802h-584v294h584v-294zM2924 3510h-292v586h292v-586zM584 3510h-292v292h292v-292zM1462 3218h-294v584h294v-584zM2632 2924h-292v586h292v-586zM1168 2924h-584v294h584v-294zM1462 2340h-294v584h294v-584zM2340 2340h-294v584h294v-584zM584 2340h-292v292 h292v-292zM1168 2048h-584v292h584v-292zM2046 1754h-292v586h292v-586zM3510 1754h-878v294h878v-294zM1754 1170h-292v584h292v-584zM3510 876h-1170v878h292v-584h878v-294zM1462 584h-294v586h294v-586zM3802 292h-292v584h292v-584zM1168 0h-292v584h292v-584z M2632 292h-292v292h292v-292zM3510 0h-878v292h878v-292z" />
<glyph unicode="&#x2158;" horiz-adv-x="4386" d="M1462 2048h-294v584h-876v586h292v-294h584v878h-292v294h586v-1172h292v-292h-292v-584zM3216 3510h-292v586h292v-586zM876 3218h-292v584h292v-584zM2924 2924h-292v586h292v-586zM2632 2340h-292v584h292v-584zM2340 1754h-294v586h294v-586zM3802 1754h-878v294h878 v-294zM2046 1170h-292v584h292v-584zM3802 876h-1170v878h292v-584h878v-294zM1754 584h-292v586h292v-586zM4094 292h-292v584h292v-584zM1462 0h-294v584h294v-584zM2924 292h-292v292h292v-292zM3802 0h-878v292h878v-292z" />
<glyph unicode="&#x215f;" d="M876 2048h-292v1462h-292v292h292v294h292v-2048zM2632 3510h-292v586h292v-586zM2340 2924h-294v586h294v-586zM2046 2340h-292v584h292v-584zM1754 1754h-292v586h292v-586zM1462 1170h-294v584h294v-584zM1168 584h-292v586h292v-586zM876 0h-292v584h292v-584z" />
<glyph unicode="&#x25fc;" horiz-adv-x="2920" d="M0 2920h2920v-2920h-2920v2920z" />
</font>
</defs>
</svg>
